<?xml version="1.0" encoding="utf-8"?>
<!-- Generator: Adobe Illustrator 21.0.2, SVG Export Plug-In . SVG Version: 6.00 Build 0)  -->
<svg version="1.1" id="Layer_1" xmlns="http://www.w3.org/2000/svg" xmlns:xlink="http://www.w3.org/1999/xlink" x="0px" y="0px"
	 viewBox="0 0 793.6 528.9" style="enable-background:new 0 0 793.6 528.9;" xml:space="preserve">
<style type="text/css">
	.st0{fill:#FFFFFF;}
</style>
<g id="m2cyMS_3_">
	<g>
		<path class="st0" d="M163.4,284.9c2.6-11.4,5.2-22.8,7.9-34.4c-1.4-0.2-2.9,1.2-4-0.6c0.3-1.3,1.1-2.3,2.5-2.7
			c1.9-0.5,3.1-1.6,3.2-3.6c0-0.7,0.4-1.4,0.5-2.1c0.3-1.8,1-3.1,3-3.5c0.6-0.1,1.2-0.8,2-1.4c-1.7-1-2.7-0.2-3.7,0.4
			c-1.4,0.8-2.9,1.3-4.7,0.9c0.1-0.5,0.1-1.1,0.3-1.5c0.3-0.7,0.8-1.2,0.2-2.1c-0.6-0.9,0.3-1.4,1.1-1.7c1.8-0.6,3.6-1.2,5.4-1.8
			c0.2-0.8,0.3-1.6,0.5-2.3c1.3-4.7,2.6-9.4,3.8-14.2c2-7.7,3.7-15.5,5.7-23.3c3.6-13.6,7.3-27.2,11-40.7c1.6-6,3.2-12,5-18
			c0.8-2.7,2.1-5.3,3.3-7.9c0.4-0.8,1.1-1.4,1.9-2.4c1,1.9-0.2,3.4,0,4.9c0.9,0,1.8-0.1,2.7-0.1c0.5,1-0.5,2.6,1.4,3
			c1.3-2.3,1.5-5.3,4-7.2c1.2,1.5,0.4,2.9,0.4,4.3c0.4,0.3,0.7,0.5,1.1,0.8c-0.3,1.5-0.6,2.8-0.9,4.2c0.2,0.1,0.4,0.2,0.5,0.2
			c0.7-0.9,1.3-1.8,2-2.7c0.2-0.3,0.4-0.7,0.7-0.9c0.3-0.3,0.9-0.7,1.2-0.6c0.4,0.2,1,0.7,1,1.1c0.1,1.2,0.1,2.4-0.1,3.6
			c-0.3,1.7,0.2,2.8,1.6,3.6c1.4,0.8,1.9,2.3,2.3,3.8c3.7,14.6,8,29,13.9,42.8c2.7,6.4,5.7,12.7,8.5,19c0.6,1.3,1.9,1.8,3.7,1.2
			c1.7-0.6,3.3-1.3,4.9-1.9c2.1-0.8,4.2-2,6.7-1.7c-0.2,2.1-2.4,2.4-3.4,3.9c1.5,1.7,3.1-0.3,4.8,0c-0.4,0.5-0.5,0.8-0.8,1
			c-1.9,1.4-3.1,3.3-3.9,5.5c-0.3,0.9-1.2,1.7-2,2.2c-1.9,1.2-3.9,2.1-5.9,3.2c-0.8,0.4-1.7,0.9-1.8,2.4c1-0.3,1.8-0.5,2.6-0.8
			c1.7-0.8,3.4-1.8,5.1-2.7c1.6-0.8,3.2-1.2,5.3-0.7c-1.9,4-6.3,4.3-9.3,7c1,0.3,1.6,0.4,2.8,0.8c-1.2,0.8-2.1,1.4-2.9,1.9
			c0.6,3.2,1.1,5.9,1.7,8.6c1,4.2,1.9,8.4,3.3,12.5c2,6,4.4,11.8,6.7,17.7c0.6,1.7,1.3,3.4,2.1,5.4c0.2-0.6,0.5-0.9,0.4-1.2
			c-0.1-2.2-0.3-4.3-0.4-6.4s-0.2-4.1,0-6.2c0.2-3.3,0.6-6.7,1-10c0.2-2,0.4-4,0.4-6c0-6.2,0.6-12.2,1.6-18.3
			c0.8-4.7,0.9-9.4,0.4-14.3c-0.5-5.2-0.2-10.5,0-15.8c0.6-15.7,1.4-31.5,1.1-47.3c0-1.7-1-2.6-1.8-3.8c-0.6-0.8-1.4-1.4-2-2.1
			c-1-1.3-0.7-2.1,1-2.4c1.6-0.3,2-0.9,1-2.2c-0.9-1.1-2-2.1-3-3.1c-0.8-0.7-1.5-1.4-1.3-2.8c3.4-0.3,5.8,2.7,9.1,3.1
			c-0.1-1.3-1-1.7-1.9-2c-2.4-0.9-4.5-2.3-6.5-4c-2.1-1.8-2.1-2.2,0-3.9c-0.8-1.2-1.6-2.4-2.5-3.5c-0.8-1.1-1.7-2.2-2.9-3.7
			c1,0,1.6-0.2,2,0c2,1,4.2,1.9,6,3.3c4.5,3.6,8.8,7.4,13.1,11.2c0.2,0.2,0.5,0.5,0.8,0.6c3.5,1.1,5.7,4.1,8.4,6.2
			c6.5,5.1,12.7,10.4,19.3,15.5c10.6,8.2,21.4,16.3,32.1,24.4c1.5,1.1,2.9,2.3,4.4,3.5c-1.3,2-0.2,3.1,1.2,4c3,2,6,3.9,9,5.9
			c1.1,0.7,2.3,1.5,3.3,2.1c0.1,1.4,0.3,2.6,0.4,4c-1,0.7-2.1,0.5-3.2,0.5c-4.3-0.3-8.3,0.9-12.1,2.5c-4,1.7-7.8,4-11.6,6.1
			c-6.3,3.6-12.6,7.3-18.8,11.1c-0.6,0.4-1.2,0.9-1.6,1.4c-0.3,0.5-0.7,1.3-0.5,1.7c0.3,0.5,1.1,0.9,1.7,1.1
			c0.5,0.1,1.1-0.1,1.6-0.3c2.5-1,4.6-0.2,6,1.7c4.3,5.5,9.9,9.8,14.8,14.6c0.7,0.7,1.6,1.3,2.4,2c3.4,2.7,6.7,5.4,10.1,8.1
			c2.5,2,5.2,3.7,7.8,5.6c1.3,0.9,2.4,2.1,3.7,3c1.3,1,2.7,2,4.1,2.9c0.8,0.5,1.7,0.9,2.4,1.3c-0.2,2.5-1.6,3.5-3.9,3.8
			c-0.4,1-0.8,2.1-1.2,3.4c-1.5-0.4-2.5,0.7-3.7,1.4c-1,0.6-1,1.4,0,2c0.7,0.4,1.6,0.7,2.5,0.9c0.9,0.3,1.4,1,1,1.8
			c-0.7,1.4,0,2.3,1,3.1c-0.6,1.6-1.6,1.4-2.7,0.9c-3.2-1.5-6.3-3.1-9.5-4.6c-2.5-1.2-5-2.4-7.6-3.5c-6.2-2.6-11.6-6.3-16.6-10.8
			c-5.4-5-10.9-9.8-16.4-14.8c-2-1.8-3.9-3.7-6-5.5c-3.2-2.7-6-1.9-6.8,2.6c-0.8,4.1-1.7,8.2-2.8,12.3c-0.4,1.3-0.3,2.6,0.5,3.7
			c0.5,0.8,0.6,1.6,0.5,2.5c-0.4,4.4-1,8.7-2.8,12.8c-0.9,2.1-1.2,4.3-0.2,6.7c0.6,1.4,0,3.3-0.3,4.9c-0.8,4.1-1.6,8.2-2.8,12.1
			c-0.6,2.1-1.9,4.1-3.4,5.7c-2.2,2.6-3.4,5.6-5,8.4c-1.1,1.8-1.9,3.7-2.7,5.6c-0.4,1.1-1.1,1.5-2.2,1.6c-0.8,0-1.6,0.1-2.4-0.1
			c-2.2-0.3-2.8-1-3.2-3.2c-0.3-1.6-0.5-3.3-0.6-5c-0.1-1.8-0.6-2.3-2.3-2.3c-3.7-0.1-4-0.5-3-4.1c1-3.9,2.1-7.9,3.2-11.8
			c0.9-3.2,0.3-6.3-0.5-9.4c-2.1,0.1-2.9,1.1-3.2,3.3c-0.2,1.6-0.4,3.2-0.6,5.3c-1.6-2-1.9-4.5-4.3-5.3c-1.1,1.9-1.6,3.9-1.4,6.1
			c0.3,2.5,0.4,5.1,0.8,7.6c0.4,2.4-0.2,4.4-1.5,6.6c-0.5-0.4-0.9-0.7-1.2-1.1c-0.5-0.6-0.9-1.3-1.5-1.8c-1.3-1.1-1.8-2.6-2.2-4.1
			c-0.7-2.2-1.6-4.4-2.3-6.6c-0.7-2.3-2.4-2.6-4.3-2.6c-0.5,0-0.9,0.2-1.3,0.2c-6.9-12.3-11.3-25.5-16.3-38.5c0,0.5,0,1,0,1.5
			c-0.1,0-0.3,0-0.4,0.1c-0.7-2.7-1.4-5.5-2.1-8.5c-2.3,0.9-4.6,1.6-6.8,2.5c-5.2,2.2-10.4,4.5-15.6,6.8c-0.2,0.1-0.4,0.3-0.7,0.3
			c-2.7,0.3-3.1,2.2-3.4,4.4c-1.1,7.2-2.2,14.3-3.4,21.5c-0.9,5.1-1.9,10.2-3.2,15.2c-0.8,3.2-1.4,6.6-3.9,9.2
			c-0.5,0.5-0.5,1.5-0.8,2.2c-0.5,1.5-0.6,3.2-2.2,4c-1.8-0.5-2.4-1.7-2.1-3.3c0.5-2.8,1.1-5.6,1.7-8.5c0.1-0.8,0.1-1.6-0.1-2.4
			c-1.8,1.8-1.9,4.3-3,6.4c-2.1,0.2-2.4,0.4-2.8,2.4c-0.3,1.2-0.5,2.5-0.7,4c-1-0.1-1.9-0.2-2.8-0.3c-0.4-1-0.8-1.9-1.2-3
			c-2.2,1.1-2.2,3.3-3.4,5c-1.9-1.9-3-3.9-2.3-6.6c0.3-1.3,0.7-2.6,0.2-4.4c-0.6,0.7-1.1,1-1.2,1.4c-0.2,1.6-0.5,3.2-0.4,4.7
			c0.1,2.4-0.2,3.1-2.2,4.2c-1.2-1.1-2.4-2.1-3.8-3.3c-0.1-0.7-0.3-1.8-0.4-2.9c0-1.4,0.1-2.9,0.3-4.3c0.2-1.5,0.6-3,0.9-4.4
			c0-0.2,0.1-0.6,0-0.7c-1.2-0.6-0.5-1.5-0.4-2.2C163.3,286.2,163.4,285.5,163.4,284.9c0.6-0.1,1.7,0.7,1.5-1
			C164.4,284.3,163.9,284.6,163.4,284.9z M307.3,154.5c-0.3-0.8-0.9-1.2-1.9-1C306,153.8,306.7,154.1,307.3,154.5
			c0.6,0.6,1.2,1.1,1.8,1.7c0.1-0.1,0.2-0.3,0.3-0.4C308.7,155.4,308,154.9,307.3,154.5z M321.8,189.4c-0.8-0.7-1.3-1.3-2-1.7
			c-1.9-1.3-3.9-2.5-5.8-3.8c-3.4-2.5-6.8-5-10.2-7.5c-3.3-2.5-6.5-5.1-9.8-7.6c-0.8-0.6-1.7-1-2.6-1.4c-0.1,0.1-0.2,0.3-0.3,0.4
			c1.4,1.8,2.7,3.7,4.4,5.2c1.7,1.6,1.7,3.4,1.6,5.4c-0.2,2.6-0.4,5.3-0.2,7.9c0.2,3.3,0.7,6.6,0.3,10c-0.1,1.1,0.2,2.2,0.3,3.3
			c0.1,0.8,0.7,1.3,1.5,1.1c1.1-0.3,2.3-0.7,3.3-1.2c5.2-2.7,10.3-5.5,15.4-8.2C319,190.5,320.3,190,321.8,189.4z M220.1,207.6
			c-1.5-4.6-3-9.1-4.5-13.6c-0.3-1-0.6-2-1.2-2.9c-0.6-1-1.6-1.1-2.3-0.1c-0.6,0.8-1,1.8-1.4,2.8c-0.7,2.2-1.3,4.4-2,6.6
			c-1.6,5.2-2.9,10.4-3.7,15.8c-0.3,1.9,0.6,2.8,2.4,2.2c0.8-0.2,1.5-0.6,2.2-0.9c3-1.1,5.8-3.1,9.2-2.9c0.2,0,0.5-0.2,0.6-0.3
			c1.5-1.4,3.3-2.7,3.5-5c-0.3-0.1-0.6-0.2-0.9-0.4c0.7-0.6,1.4-1.2,2-1.8c-0.1-0.1-0.1-0.3-0.2-0.4
			C222.7,207,221.5,207.3,220.1,207.6z M276.2,234.4c0.7-1.9,1.5-3.4,1.7-5c0.3-1.6,0.2-3.3,0.1-5c-0.1-1.5,0.4-3.2-0.4-4.6
			c-0.2,0-0.4,0-0.5,0C276.8,224.6,276.5,229.3,276.2,234.4z M293.5,146.7c-0.1,1.5,0.6,2.4,1.5,3.2c2.3,1.9,4.7,3.8,7,5.7
			c0.5,0.4,1.1,0.7,1.7,1C300.7,152.9,296.4,150.7,293.5,146.7z M350.7,187c0.4,0.6,0.7,1.4,1.2,1.7c1.5,0.7,3.1,1.4,4.9,0.6
			C355.3,187.6,353.8,187,350.7,187z M248.2,212.2c2.8-1.4,5.6-2.9,8.4-4.3C253.9,207.7,250,209.7,248.2,212.2z M180.6,290.2
			c-1.4,2.1-2.2,4.3-2.1,6.8C179.2,294.8,179.9,292.5,180.6,290.2z M167.3,298.3c-0.2,0-0.3,0-0.5-0.1c-0.2,1.7-0.4,3.4-0.6,5.1
			c0.2,0,0.4,0,0.6,0.1C167.1,301.7,167.5,300.1,167.3,298.3z M314.2,220.1c1,0.5,1.8,0.5,2.4-0.3c0.1-0.1-0.1-0.7-0.2-0.8
			C315.4,218.5,314.7,218.9,314.2,220.1z M255.8,282.9c-0.2,0.1-0.3,0.2-0.5,0.2c0.4,0.8,0.8,1.6,1.2,2.3c0.2-0.1,0.3-0.1,0.5-0.2
			C256.6,284.5,256.2,283.7,255.8,282.9z M173.4,297.6c1.2-0.7,1.2-0.7,1-2.1C174,296.3,173.7,297,173.4,297.6z M260.4,272.7
			c0.1,0,0.2,0,0.3-0.1c0-0.3,0-0.6-0.1-0.8c-0.1-0.3-0.3-0.5-0.5-0.8c-0.1,0.1-0.2,0.1-0.3,0.2C260,271.7,260.2,272.2,260.4,272.7z
			"/>
		<path class="st0" d="M102.3,152.3c0.5,0.8,1,1.6,1.6,2.4c-1.7,0.6-3.4,1.1-5.1,1.7c-1,0.3-1.6,0.9-1.1,2.4
			c1.1-0.3,2.2-0.4,3.2-0.8c1.1-0.6,2.1-0.4,3.5,0.2c-2,1.2-3.9,2.2-5.6,3.3c-1.9,1.2-3.8,2.5-5.4,3.9c-4.3,3.8-8.5,7.8-12.7,11.7
			c-3.7,3.4-6.6,7.4-9.2,11.6c-1.2,1.9-2.4,3.8-3.8,5.5c-5.9,7.3-10.8,15.3-14.9,23.7c-3.6,7.4-6.1,15.3-7.9,23.3
			c-0.6,2.7-1,5.5-1,8.3c0,2.6-1.7,4.8-1.7,7.4c-1.6,1.7-3.1,3.4-4.8,4.9c-0.8,0.7-2,1-3,1.6c-0.7,0.4-1.3,0.8-2.1,1.3
			c1.5,1,2.7,0.4,3.8-0.3c3.1-1.9,6.1-3.8,9.2-5.6c1.5-0.9,3.2-1.7,4.7-2.7c3.6-2.4,7.2-4.8,10.7-7.3c7.1-5,14.8-8.8,22.8-12.2
			c16.2-7,32.5-13.9,48.7-20.9c2.7-1.2,5.4-2.4,8.1-3.7c1.1-0.5,2-0.7,3.2-0.3c0.9,0.3,1.9,0.3,3,0.5c0.9,1.5,1.9,3.1,3,4.7
			c3.3,4.8,6.7,9.5,10.1,14.3c0.4,0.5,0.8,1.1,0.9,1.6c0.3,3.7,0.4,7.5,0.6,11.4c-3.4,0.2-4.6,2.7-5.4,5.3c-0.8,2.6-1.4,5.2-1.9,7.9
			c-0.3,1.6-0.8,3-1.6,4.4c-4.1,6.6-8.5,13-13.2,19.1c-1.9,2.4-3.4,5-5.3,7.4c-2.2,2.8-4.5,5.4-6.8,8c-0.6,0.7-1.4,1.3-2.2,1.8
			c-11.3,6.6-21.8,14.5-32.8,21.7c-6.1,4-12.2,7.9-18.3,11.9c-2.1,1.4-4.4,1.7-6.6,0.8c-1.9-0.8-3.7-0.5-5.6-0.1
			c-4.1,0.8-8,2-12.2,2.3c-2.5,0.1-4.9,1-6.9,2.5c-1.5,1-2.9,1-4.2,0.1c-2.7-2-5.4-3.9-7.9-6.2c-1.9-1.8-2.7-4.3-2.9-7
			c-0.1-1.2-0.6-2.1-1.7-2.3c-2.9-0.7-4.7-2.9-6.4-5.1c-1.3-1.8-2.3-3.8-3.5-5.8c0.3-0.5,0.6-1,0.9-1.6c-0.7,0.2-1.2,0.3-2,0.5
			c0.1-0.6,0.1-1.1,0.2-1.6c0.1-0.5,0.4-1,0.6-1.6c-1.3-0.2-1.9,0.6-2.7,1.1c-1.6,1-3.2,2.1-4.8,3.1c-1,0.6-2.1,1.1-3.7,0.5
			c0.8-0.8,1.6-1.6,2.3-2.3c-0.1-0.1-0.1-0.2-0.2-0.3c-0.8,0.4-1.6,0.8-2.6,1.2c-0.1-1.3-0.1-2.3-0.2-3.5c3.2-2.5,6.4-5,9.7-7.6
			c-0.1-0.1-0.2-0.3-0.3-0.4c-3.2,2.2-6.3,4.4-9.8,6.7c-0.4-1.5-0.7-2.8-1-4.2c1.2-1,2.3-1.9,3.5-2.9c-0.1-0.1-0.2-0.3-0.2-0.4
			c-1.1,0.6-2.2,1.2-3.6,1.9c-0.4-0.9-0.8-1.8-1.3-2.7c-0.6-1-0.3-1.9,0.6-2.5c3.3-2.4,6.1-5.4,9.8-7.3c1.2-0.6,2.3-1.6,3.2-2.8
			c-1.3,0.3-2.7,0.6-4,0.9c-0.1-0.1-0.1-0.3-0.2-0.4c1.7-1,3.3-1.9,5-2.9c-2.4-1-4.3,1.2-6.8,0.2c0.3-3.2,0.5-6.5,1-9.7
			c0.7-5.1,1.6-10.3,2.4-15.4c0.2-1.2,0.1-2.5,0.1-3.8c-0.3-7,1.4-13.8,3.3-20.4c0.9-3.2,2.4-6.3,3.5-9.4c1.5-3.9,3-7.9,4.5-11.8
			c1.3-3.3,2.6-6.7,4.1-10c1.5-3.4,3-6.7,4.6-10c1.7-3.5,3.5-7,5.3-10.4c1.8-3.3,3.6-6.5,5.7-9.7c2.1-3.2,4.3-6.3,6.6-9.4
			c1.8-2.3,3.9-4.4,5.7-6.8c0.7-0.9,1.1-2.1,1.6-3.2c1.5-3,3.8-5.5,6.1-8c3.9-4.2,7.8-8.5,11.8-12.6c2.8-2.8,5.8-5.5,8.9-8
			c2.3-1.9,4.9-3.5,7.3-5.3c0.4-0.3,0.9-0.7,1.2-1.1c1.2-1.8,2.9-2.9,4.8-3.9c3.4-1.7,6.6-3.5,10-5.2c3.8-1.8,7.6-1.9,11.1,0.7
			c0.7,0.5,1.1,1.3,1.5,2.1c3.1,6.1,6.1,12.3,9.1,18.5c3.6,7.3,7.1,14.7,10.7,22c1.1,2.2,1.8,4.4,2,6.8c0.2,1.7,0.6,3.4,0.9,5.1
			c-0.1,0.1-0.3,0.1-0.4,0.2c-1.9-3.4-3.8-6.8-5.7-10.3c-0.2,0.1-0.4,0.1-0.5,0.2c0.2,0.8,0.3,1.8,0.7,2.5c1.8,3.3,3.8,6.5,5.7,9.7
			c0.9,1.6,1.8,3.2,2.7,4.8c0.8,1.5,1.1,2.9-0.6,4c0.6,1.6,1.1,3.1,1.6,4.6c-1.1,0.6-2,1.1-3.2,1.7c0.9,2.4,1.8,4.7,2.7,7
			c0.2,0.4,0.4,0.9,0.5,1.3c0,0.3-0.1,0.7-0.3,0.8c-0.3,0.1-0.9,0.2-1.1,0c-1-1.3-2.5-2.1-3.4-3.6c-2.1-3.6-4.5-6.9-7.8-9.6
			c-2.8-2.2-5.1-4.7-7-7.8c-1.3-2.2-3.3-4.1-4.9-6.1c-1.4-1.7-2.9-3.4-4.4-5c-0.7-0.7-1.6-1.4-2.5-1.9c-2.5-1.3-5-2.4-7.6-3.6
			C104.7,151.5,104.1,151.6,102.3,152.3z M137.7,238.7c-1.4,0.7-2.4,1.1-3.3,1.7c-3,1.8-5.9,3.7-9.2,5.1c-5.1,2.2-10.1,4.4-15,6.8
			c-6.4,3-12.8,6.1-19.2,9.2c-1.8,0.9-3.6,1.7-5.3,2.7c-8.2,4.8-16.1,10-24.9,13.8c-1.8,0.8-3.5,1.7-5.1,2.7s-3.2,2.2-4.5,3.5
			s-2.5,2.4-4.2,3c-2.3,0.8-3.7,2.5-4.9,5.3c3.2-1.6,5.9-3,8.6-4.3c1.4,1.2,2.6,2.5,4,3.2c0.9,0.5,1.4,1.1,1.9,1.9
			c2.1,3.6,4.7,6.4,9.1,7.1c0.6,0.1,1.2,0.3,1.9,0.5c3.7,1.1,7.3,0.7,10.7-1.1c3.7-2,7.5-3.9,10.7-6.8c6.6-6,13.5-11.8,20.1-17.8
			c5.5-5.1,10.7-10.5,16.1-15.8c0.8-0.8,1.4-1.8,2-2.7c0.6-0.8,1.1-1.8,1.7-2.6c1-1.4,2.1-2.6,3.1-4s1.8-2.8,3.3-3.7
			c0.4-0.2,0.5-0.8,1-1.5c-1.2,0.1-2.1,0.2-3.1,0.3c0.2-1.6,1.3-2.3,2.2-3.1C136.1,241.3,137.3,240.7,137.7,238.7z M45.2,180.7
			c-0.1-0.1-0.2-0.2-0.4-0.3c-4.5,5.9-8.3,12.2-12.1,18.6c0.2,0.1,0.3,0.2,0.5,0.3C37.1,193.1,41.1,186.9,45.2,180.7z M136.9,165.5
			c-0.3,3.4,2.7,9.6,5.4,11.6C140.4,173,138.6,169.3,136.9,165.5z M125,138.6c0.2-0.1,0.3-0.3,0.5-0.4c-2-3.8-4-7.5-6-11.3
			c-0.2,0.1-0.4,0.2-0.5,0.3C120.3,131.3,122.8,134.9,125,138.6z M69.6,325.4c0.1,0.2,0.3,0.3,0.4,0.5c3.2-2.3,6.6-4.4,9.6-6.9
			c-0.1-0.2-0.2-0.3-0.4-0.5C76.1,320.8,72.9,323.1,69.6,325.4z M110.8,119.8c2,3.3,3.8,6.2,5.7,9.5
			C116.1,126.2,113.1,121.2,110.8,119.8z M119.7,140.7c-1.1-1.9-2.2-3.8-3.3-5.7C116.5,137.1,117.6,139,119.7,140.7z M20.7,290.2
			c-3.3,0.5-3.3,0.5-3.9,1.8C18.2,291.4,19.4,290.8,20.7,290.2z M139.4,177.1c-0.7-1.2-1.4-2.4-2.1-3.6c-0.1,0.1-0.3,0.2-0.4,0.3
			C137.1,175.2,137.9,176.3,139.4,177.1z M33.2,203c0.1,0.1,0.2,0.2,0.3,0.3c0.3-0.6,0.7-1.3,1-1.9c-0.1,0-0.2-0.1-0.3-0.1
			C33.9,201.8,33.6,202.4,33.2,203z"/>
		<path class="st0" d="M72.4,506.2c2.4,1.2,4.7,2.4,7.1,3.5c-7.1-6.2-14.2-12.3-18.7-21.3c2,0.5,3.1,1.6,4.2,2.6
			c3.7,3.4,7.3,6.9,11,10.3c1.6,1.5,3.4,2.9,5.1,4.3c0.5,0.4,1,0.6,1.7,0.7c-5.4-6.1-12.7-10.5-16.4-18.7c1.7,0.1,2.6,0.8,3.5,1.6
			c1.8,1.7,3.6,3.4,5.4,5.1c4.1,4.1,8.6,7.5,14.3,8.8c3.3,0.8,6.8,1,10.2,1.3c4.3,0.4,8.6,0.6,12.1,2.1c3.1-1.1,5.8-2.1,8.5-3.1
			c2.8-1.1,5.7-2.1,8.5-3.3c3.3-1.3,6.5-2.7,9.8-4c3.6-1.3,6.8-3.1,9.8-5.5c6.6-5.4,13.1-10.7,19.6-16.1c1.9-1.6,3.6-3.4,5.4-5.1
			c0.9-0.8,1.9-1.5,2.7-2.3c0.7-0.7,1.2-1.4,1.7-2.2c0.7-1.2,1.4-2.5,2.1-3.8c1.1-2.3,2.4-4.5,3.3-6.9c1.1-2.9,1.7-6,0.8-9.2
			c-0.3-1-0.1-2.1-0.1-3.1c0-1.4-0.1-2.7-1.5-3.8c0,3.1,0.9,6.1-0.3,9.3c-0.3-0.7-0.5-1.2-0.7-1.8c-1.2-3.6-3-6.9-5.2-10
			c-1-1.5-2.3-2.3-4-2.8c-2.5-0.7-4.9-1.4-7.5-0.3c-0.9,0.4-2.1,0.3-3,0.1c-6.6-1-13.2-2.2-19.9-3.2c-5.3-0.8-10.2-2.5-15-4.8
			c-6.3-3.1-12.2-7-17.5-11.7c-2.2-1.9-4.3-3.7-6.5-5.5c-1.4-1.1-1.7-2.5-1.7-4.2c-0.1-3.1,0.2-6.2,0.6-9.2
			c0.6-4.5,0.7-9.1,1.1-13.6c0.6-6.8,1.8-13.5,4.2-19.9c0.4-1.2,1-2.3,1.6-3.7c0.4,0.5,0.6,0.7,1,1.1c1.6-2.5,2.3-5.5,4.6-7.6
			c0.1,4.2-1.9,8-2.5,12.1c1.1-2.1,2.3-4.1,3.4-6.2c0.2,0.1,0.4,0.1,0.6,0.2c0.4,3.4-1,6.7-1.4,10.4c0.5-0.3,0.8-0.5,0.9-0.7
			c1.4-1.8,2.7-3.8,4.1-5.6c1.7-2.2,3.6-4.3,5.4-6.4c1.4-1.5,2.9-2.9,4.4-4.4c4.8-5.1,10.4-9.5,15.9-13.8c3.8-3,7.7-6,11.6-8.8
			c4.7-3.4,9.9-6.2,15.2-8.6c0.9-0.4,1.7-1.1,2.8-1.8c1,0.8,2.4,0.3,3.8-0.1c4-1,8-1.2,12.1-0.8c3,0.3,6,0.6,9,1
			c3.5,0.5,6.8,1.7,9.8,3.7c0.5,0.3,1,0.8,1.4,1.3c1.7,2.3,3.4,4.7,5,7c1.9,2.7,3.7,5.4,5.6,8.1c2.5,3.4,4,7.3,5.3,11.2
			c1.3,4.2,2,8.5,3,12.9c-0.6,0.5-1.4,0.5-1.4,1.5c-0.2,3.2,1,6.1,1.7,9.1c0.3,1.4,0.6,2.8,0.9,4.5c-1.5-0.7-1.8-1.7-2.1-2.6
			c-1.7-4.6-3.4-9.3-5.1-13.9c-0.3-0.8-0.7-1.5-1.1-2.3c-0.2,0-0.3,0.1-0.5,0.1c0,0.4-0.2,0.8-0.1,1.2c0.3,1,0.7,1.9,1.1,2.9
			c0.8,2.3,1.6,4.5,2.2,6.8c0.5,1.7,0.2,2.1-1.5,3c-0.7-1.4-1.5-2.8-2.3-4.3c-2.1,0.6-3.5-0.3-4.3-2.2c-0.2-0.5-0.3-1.1-1.1-0.7
			c-0.1,0-0.5-0.5-0.7-0.8c-0.3-0.7-0.6-1.5-0.8-2.3c-0.5-2.9-2-5.2-4-7.2c-1.2-1.2-2.3-2.4-3.3-3.8c-1.2-1.6-2.9-2.2-4.5-3
			c-0.3-0.1-0.7-0.3-0.9-0.2c-1.4,0.7-2.5-0.2-3.7-0.5c-6.9-1.9-13.6-1.5-20,2c-1.9,1-4,1.5-6,2.4c-4.8,2.1-9.3,4.8-12.4,9.1
			c-2.2,2.9-4,6.2-5.7,9.4c-1.7,3.1-2.6,6.7-4.7,9.6c-0.4,0.6-0.5,1.3-0.6,2c-0.1,0.6,0.1,1.4-0.2,1.9c-1.3,2.8-0.2,5.3,0.7,7.9
			c0.8,2.1,1.9,3.7,4,4.8c2,1.1,3.9,2.5,6.2,2.9c0.9,0.1,1.9,0.3,2.8,0.4c4.2,0.2,8.3,0.1,12.4,0.5c4.5,0.4,8.6,2.2,11.8,5.3
			c6.3,6.1,12.4,12.4,18.6,18.7c0.6,0.6,1.2,1.3,2,2.2c0.9-2.6,1.7-4.9,2.5-7.2c0.2,0,0.3,0,0.5,0c0.2,0.9,0.3,1.8,0.5,2.9
			c0.7-0.6,1.4-1.1,2.1-1.7c0.9,0.7,1.2,1.7,1.2,2.9c0,3.7,0.1,7.4,0.2,11c0,0.9,0.2,1.6,0.6,2.5c0.5,0.9,0.4,2.1,0.6,3.4
			c0.5,0,1.1,0,1.8,0c0.2,5.7,0.4,11.3,0.6,16.9c0.1,1.4,0.1,2.7,0.2,4.1c0.2,1.8-0.1,3.5-0.8,5.1c-0.9,2.3-1.6,4.7-2.5,7
			c-0.8,2.2-1.8,4.2-2.7,6.4c-2.5,5.7-6,10.7-9.4,15.8c-2.9,4.3-6.2,8.4-10.3,11.6c-4.8,3.7-10.2,6.4-16.4,7.4
			c-1.8,0.3-3.5,1.4-5.2,2.2c-2.1,1.1-4.2,2.3-6.3,3.4c-0.6,0.3-1.2,0.4-1.8,0.6c-12.3,2.7-24.5,5.4-36.8,8
			c-6.2,1.3-12.5,1.7-18.8,0.8c-1.3-0.2-2.5-0.7-3.7-1c-2.5-0.7-5.1-1.3-7.6-2.1c-1.2-0.4-2.4-0.8-3.6-1.3c-2.2-0.9-4.4-1.8-6.6-2.8
			c-2.5-1.2-5-2.5-7.4-4c-1-0.6-1.8-1.5-2.6-2.4c-0.3-0.4-0.2-1.1-0.4-2.1c-0.4-0.4-1.1-1-1.8-1.7c0.1-0.1,0.2-0.2,0.2-0.3
			c2,1.2,4,2.3,6,3.5c0.1-0.1,0.2-0.2,0.3-0.4c-2.6-2.4-5.8-4.2-7.7-7.2C72.2,506.5,72.3,506.4,72.4,506.2z M204.6,326.2
			c-0.6-0.5-1.3-0.9-1.9-1.4c-0.1,0.2-0.2,0.3-0.3,0.5c0.7,0.3,1.4,0.7,2.1,1c1.4,1.1,2.7,2.2,4.1,3.3c0.1-0.1,0.2-0.3,0.3-0.4
			C208.1,327.5,206.3,326.9,204.6,326.2z M201.5,487.9c0.2-0.2,0.5-0.4,0.7-0.6c0.4-0.5,0.7-1.1,1-1.6c3.6-6.2,5.7-13,7-20
			c0.5-2.8,0.6-5.7,0.7-8.6c0-0.7,0.3-1.6-0.7-2.1C208.7,467,208.9,471.2,201.5,487.9z M104.8,401.3c0.1-1.8-0.1-3.7,0.2-5.4
			c0.6-4.5,1.4-8.9,2.1-13.4c0.1-0.8,0.1-1.6,0.2-2.9C104.6,383.1,102.8,398.3,104.8,401.3z M119.5,413.5
			c-3.4-5.4-5.7-11.1-6.5-17.5C111.4,400.3,115.4,411.2,119.5,413.5z M88.4,511.3c3.6,5.3,7.8,7.3,11.2,5.2
			C95.3,515.8,92.2,512.8,88.4,511.3z M205.3,439c0.2,0,0.3-0.1,0.5-0.1c0.2-4-2.3-9.1-5.2-10.4C202.2,432.2,203.8,435.6,205.3,439z
			 M213.3,331.7c-0.6,1.3,0.4,2,0.8,3c0.4,1,0.7,1.9,1.1,2.9c0.4,0.9,0.4,2.1,1.6,2.5C216.3,337,215.2,334.2,213.3,331.7z
			 M202.6,443.8c-1.1,2.1-1,3.1,0.5,4.4C203,446.6,202.8,445.4,202.6,443.8z M111.4,384.2c-1.4,2.6-1.7,4.4-1.1,6.5
			C110.7,388.6,111,386.6,111.4,384.2z M88.5,506.4c1,1.1,2.2,1.9,3.8,1.4C91,507.4,89.8,506.9,88.5,506.4z M206.7,333.5
			c-0.1,0.1-0.2,0.2-0.3,0.4c0.5,0.7,0.9,1.6,2.7,1.4C208,334.5,207.4,334,206.7,333.5z M210,443.8c0.2,0,0.4-0.1,0.6-0.1
			c-0.1-0.5-0.2-1-0.3-1.5c0-0.1-0.4-0.1-0.8-0.2C209.7,442.7,209.8,443.2,210,443.8z M85.1,513.1c0,0.9,0.4,1.3,1.6,1.4
			C86,513.8,85.5,513.5,85.1,513.1z"/>
		<path class="st0" d="M424.2,189.5c0.5,4.4,3.2,7.6,5.4,11.1c0.9,1.4,2.1,2.6,3.2,3.9c2.2,2.7,4.3,5.6,6.8,8.1
			c4.4,4.5,8.7,9.2,13.6,13.2c3.5,2.8,7.8,4.6,11.9,6.6c3.4,1.8,6.9,3.3,10.4,5c0.1,0,0.1,0.3,0.3,0.6c-1.8,0-3.5,0-5.6,0
			c1.4,1.7,2.3,3.3,4.2,4c0.9,0.3,1.7,0.8,1.8,2.1c-0.9,0.2-1.8,0.4-2.6,0.7c0.1,1.5,1.2,1.5,2.1,1.6c2.6,0.3,4.7,1.6,6.7,3.1
			c0.7,0.5,1.2,1.2,2,2.2c-1,0.5-1.6,1.2-2.4,1.3c-1.6,0.3-3.3,0.3-5,0.3c-1.6,0-3.2-0.1-4.8-0.3c-1.1-0.2-2.1-0.6-3.1-1.1
			c-1.8-1-3.5-2.2-5.5-3.4c-0.7,3.6,2.5,4,4.1,5.9c-2.9,1.4-5.6,2.3-8.8,1.4c-5.4-1.6-9.7-5-13.8-8.7c-2.6-2.4-4.8-5.1-6.9-7.9
			c-0.9-1.2-2.1-2.2-3.2-3.2c-5.6-4.9-11.2-9.8-16.9-14.6c-2.2-1.8-4.7-3.3-7-5c-4.1-2.9-8.3-5.7-12.4-8.6c-0.2-0.1-0.4-0.2-0.9-0.4
			c0.2,2.1,0.3,4,0.5,5.9c0.3,4,0.6,7.9,0.9,11.9c0.2,3.9,0.4,7.8,0.6,11.7c0.2,3.3,0.5,6.7,0.7,10c0.2,2.2,0.3,4.5,0.4,6.7
			c0.1,1.4,0.1,2.8-0.5,4.2c-0.2,0.5-0.1,1.1-0.1,1.6c0.2,1.4,0.5,2.7-0.3,4.3c-0.7,1.5-0.3,3.6-0.5,5.4c-0.1,1-0.1,1.9-0.3,2.9
			c-0.1,0.4-0.5,0.8-0.8,1.2c-0.2,0-0.4-0.1-0.6-0.1c-0.4-4.5-0.7-8.9-1.1-13.4c-0.2,0-0.3,0-0.5,0c-0.3,1.5-0.5,3.1-0.8,4.6
			c-0.3,1.9-0.1,3.7-1.2,5.5c-0.6,1-0.5,2.5-0.5,3.8c0,1.9-0.8,3.3-2.1,4.7c-1.8-0.9-1.2-2.7-1.6-4.1c-0.8-0.1-1.5-0.3-2.3-0.4
			c-1,0.8-0.8,1.9-0.8,2.9c-0.1,2.5-0.3,4.9-0.4,7.4c-0.1,1.5-1,1.8-2.6,1.5c-0.1-5.5-1.5-10.7-3.5-16.5c-0.4,2.3-0.7,4.2-1,6
			c-0.2,0-0.3,0-0.5-0.1c-0.2-1.3-0.3-2.6-0.5-3.9c-0.6-5.6-1.2-11.3-1.7-16.9c-0.3-4.1-0.4-8.1-0.7-12.2c-0.4-6.8-1-13.5-1.4-20.3
			c-0.4-6.1-0.6-12.3-1-18.4c-0.3-4.8-0.9-9.5-1.3-14.3c-0.3-3.4-0.6-6.8-0.9-10.2c-0.5-7.1-0.5-14.2-1.5-21.2
			c-1-7.4-0.8-14.8-0.9-22.2c0-2.3,0.2-4.6-1.5-6.6c-0.5-0.6-0.4-1.6-0.6-2.8c-1.5-0.8-3.3-1.7-5.1-2.5c-2.1-0.9-4.2-1.9-5.8-3.6
			c-1.5-1.7-2.3-3.6-2.1-6.3c0.7,0.5,1.3,0.9,1.8,1.3c2.2,1.5,4.3,3,6.6,4.3c0.8,0.5,1.9,0.7,2.8,1c0.1-0.2,0.2-0.3,0.3-0.5
			c-3.4-3-6.8-6.1-10.2-9.1c0.5-1.5,1.2-1.7,2.4-1.2c4.3,1.7,5,1.7,8.9,1.3c-1.1-3-4.2-4.9-4.9-8.2c1.7-0.1,2.6,0.9,3.5,1.9
			c1,1,1.9,2.2,2.9,3.2c0.7,0.7,1.7,1.1,2.5,1.7c0.2-0.1,0.3-0.3,0.5-0.4c-0.4-0.7-0.7-1.4-1.2-2.1c-0.3-0.4-0.7-0.8-1.2-1.2
			c-2.5-1.8-2.9-4.1-2-7.1c0.3,0.2,0.7,0.3,1,0.5c11.1,9.2,22.3,18.5,33.3,27.8c2.8,2.4,5.2,5.2,8,7.6c4.6,3.9,9.3,7.6,14,11.3
			c2.9,2.3,5.9,4.6,8.9,6.9c0.5,0.4,1,1,1.7,1.7c-0.6,0.1-0.9,0.2-1.2,0.3c-1.2,0.5-1.4,1.3-0.4,2.1c0.4,0.3,1,0.5,1.4,0.8
			c1.4,1,2.8,1.8,4,3c2,2.1,4.3,3.8,7,4.9c2.7,1.1,5.5,2.1,8.2,3.3c1,0.4,1.8,1.1,3.2,2c-1,0.4-1.5,0.7-1.9,0.8
			c-1.8,0.5-3.6,0.9-5.3,1.3c-1.7,0.5-3.4,1-5.3,0.9c-3.3-0.2-6,1.8-8.4,4c-1,1-2.1,1.9-3.2,2.8c-3.5,2.4-7,4.8-10.5,7.1
			c-0.1,0.1-0.3,0.2-0.4,0.3c-1.3,1-1.6,1.8-1,2.6c0.9,1.1,1.8,0.6,2.8,0.1C423,190.1,423.5,189.8,424.2,189.5z M387.9,149.7
			c-0.2,0.1-0.3,0.1-0.5,0.2c0.1,0.4,0,0.8,0.2,1.1c1.1,1.5,2.2,2.9,3.4,4.3c0.8,0.8,1.1,1.6,1.2,2.7c0.3,7.7,0.6,15.3,1,23
			c0.1,2.4,0.9,2.8,3,1.5c2.4-1.4,4.9-2.7,7.3-4c3.7-2.1,7.4-4.1,11-6.2c0.4-0.2,0.8-0.9,0.7-1.3c0-0.4-0.6-0.8-1.1-1
			c-0.8-0.5-1.8-0.7-2.5-1.2c-4.7-3.4-9.4-6.8-14.2-10.2c-1.2-0.9-2.2-1.7-2.4-3.3c-0.1-1-0.8-1.8-1.8-1.4c-1.1,0.4-1.7-0.2-2.3-0.8
			C390,151.9,388.9,150.8,387.9,149.7z M380.9,222.1c1-4.2,0.1-17.5-1.3-20.5C380.1,208.4,380.5,215.3,380.9,222.1z M464.8,240.3
			c-1.4-2-3-3.7-5.6-3.8C460.6,238.6,462.7,239.5,464.8,240.3z M393.5,244.2c-1.2,2.7-0.9,4.8,0.6,6
			C394.8,248.2,394.7,246.4,393.5,244.2z M415.5,191.1c-2.4,0.8-4.9,1.4-6.8,3.3C411.2,193.8,413.5,192.7,415.5,191.1z M433.7,162.6
			c1.9,1.5,4,2.6,6.4,3.2C438.3,164,436.2,163,433.7,162.6z M388.7,261.3c-1.1,4.5-1.1,4.8,0.4,6
			C389.7,265.3,389.8,263.5,388.7,261.3z M375.3,116c-0.7-1.8-1.9-2.2-3.4-3C372.5,114.8,373.4,115.5,375.3,116z M440.5,170.4
			c0,0.1,0.1,0.2,0.1,0.3c0.9,0,1.8,0,2.7,0c-0.5-0.4-0.9-0.5-1.4-0.4C441.4,170.3,441,170.4,440.5,170.4z"/>
		<path class="st0" d="M489.2,399.8c-1.9,5.5-2.3,11.4-3.7,17.1c-1.3-1.8-1.8-3.9-1.3-6.3c0.9-4.9,1.8-9.9,2.6-14.8
			c0.4-2.6,0.6-5.2,0.9-7.8c0.5-3.3,1.2-6.6,1.7-9.9c0.5-2.6,0.9-5.2,1.3-7.8c0.1-0.6,0.1-1.3,0.2-1.9c0.4-2.7,1.3-4.7,4.2-5.7
			c2.2-0.7,4.1-2,5.8-3.6c-4.8,0.5-8.9,3-13.2,4.5c0.9-1.2,1.5-2.6,2.6-3.5c1.4-1.2,3.1-2.1,4.8-3c1.9-1.1,3.9-2.2,5.9-3.3
			c0.4-0.2,0.7-0.6,1-1c-2.5,0.2-4.6,1.3-6.9,2.2c-2.4,0.9-4.8,1.9-7.1,2.9c-2.3,0.9-4.5,1.9-7.1,3c-0.2-0.7-0.5-1.3-0.4-1.7
			c0.1-0.3,0.9-0.4,1.4-0.5c0.7-0.2,1.4-0.1,2-0.4c2.9-1.4,5.8-3,8.8-4.3c1.5-0.7,1.6-2,2.4-3.1c-1.1-0.8-2,0-2.8,0.1
			c-1.5,0.1-2.3-0.3-2.5-1.5s0.2-2,1.4-1.9c1.6,0.2,2.7-0.9,4-1.4c0.4-0.1,0.7-0.7,0.8-1.1c1-4.4,1.9-8.9,2.9-13.3
			c0.7-3.1,1.5-6.2,2.3-9.3c0.6-2.5,1.2-5.1,1.9-7.7c0.9-3.7,1.9-7.4,2.7-11.1c0.6-2.7,1.1-5.4,1.9-8.1c0.9-3.5,2-6.9,3-10.3
			c1.2-4,2.4-7.9,3.6-11.9c1.5-5.3,2.9-10.6,4.4-15.9c0.3-1.1,0.8-2.1,1.3-3.1c0.5-0.8,1.1-1.6,2-1c1-1.7,2-3.2,2.9-4.8
			c0.4-0.8,0.6-1.6,0.9-2.5c0.4-1.1,0.7-2.3,2.3-2.9c-0.1,3.9-0.3,7.5-0.4,11c0.1,0,0.2,0,0.4,0.1c0.3-1.4,0.6-2.9,0.9-4.8
			c0.6,2.3,1.9,3.8,1.2,6c-0.5,1.8-0.5,3.8-0.4,5.8c0.1-0.5,0.3-1,0.4-1.6c0.4,0.1,0.8,0.1,1.1,0.2c0.8-1.6,0.6-3.6,2.4-5.2
			c1,2,0.5,4.1,1.5,5.9c0.4-0.2,0.9-0.4,1.7-0.8c0,1.1,0.2,2,0.1,2.9c-0.2,1.4-0.5,2.9-0.9,4.2c-0.5,1.5-0.2,2.8,0.5,4.1
			c7.8,17.1,15.6,34.2,23.4,51.2c0.3,0.6,0.7,1.3,1.1,2.1c1.7-1,4-0.5,5.2-2.5c1.4-0.2,2.8-0.5,4.2-0.5c0.7,0,1.5,0.4,2.5,0.7
			c-0.9,0.7-1.7,1.2-2.9,2c1.6,0,2.7,0,3.9,0c0,0.1,0,0.2,0,0.3c-3.3,1-6.7,2-10,2.9c0,0.2,0.1,0.3,0.1,0.5c0.4-0.1,0.9-0.1,1.3-0.2
			c3.4-0.9,6.8-1.9,10.2-2.7c0.8-0.2,1.7-0.2,2.6-0.3c0.2,1.7-1.6,1.2-1.9,2.2c1,0.1,1.9,0.1,2.9,0.2c0,0.1,0.1,0.3,0.1,0.4
			c-0.6,0.4-1.1,0.9-1.7,1.1c-1.9,0.9-3.9,1.8-5.9,2.6c-0.4,0.2-0.9,0.4-1.4,0.3c-2.7-0.5-5,0.4-7.4,1.5c-2.2,1-4.3,2.1-6.3,3.6
			c0.5-0.1,0.9-0.1,1.4-0.3c1.4-0.6,2.9-1.1,4.1-1.9c1.8-1.2,3.8-0.6,5.7-1c0.5-0.1,2.1-0.1,1.9,1.4c0,0.1,0.4,0.4,0.7,0.5
			c0.7,0.2,1.5,0.4,2.3,0.7c-0.8,2.2-2.9,1.9-4.3,2.9c0.8,1.6,1.6,3.1,2.3,4.7c1.7,4.4,3.4,8.7,5,13.2c1,2.7,1.8,5.4,2.7,8.2
			c0.3,0.8,0.6,1.5,0.9,2.2c0.7,1.8,1.2,3.6,0.6,6.1c-2.7-4.1-4.3-8.2-6.2-12.2c0.4,3.1,1.3,6,2.8,8.7c1.4,2.6,2.9,5.1,4.1,7.8
			c1.3,2.9,2.3,6,3.3,9c0.9,2.8,1.8,5.6,2.6,8.5c0.3,0.9,0.1,2-0.1,3c-4.2-4.4-5.9-10.3-9.8-15c-0.7,1.3,0,2.1,0.3,3.1
			c0.2,0.8,1.7,1.5,0.2,2.5c-0.1,0.1,0.3,1,0.5,1.5c1.8,3.8,3.6,7.7,6.5,10.9c0.3,0.3,0.3,0.8,0.2,1.4c-2.9-2.3-4.3-5.7-6.6-8.4
			c0.4,2.2,1.6,3.9,2.7,5.8c1,1.8,2.9,3,3.4,5.2c-1.4,0.6-2.2-0.2-2.8-1c-2.1-2.5-4.1-5.1-6.1-7.7c-0.6-0.7-1-1.5-1.7-2.1
			c1.3,4.2,3.8,7.6,6.9,10.9c-1.3,0.8-2.6,1-3.7,0.5c-1.1-0.5-2-1.5-3.2-2.1c0.2,0.4,0.4,0.8,0.6,1.2c-0.2,0.1-0.4,0.2-0.6,0.3
			c-0.2,0.1-0.4,0.3-0.7,0.5c-1.2-1.7-2.3-3.3-3.4-4.9c0.3,2.8,2.3,4.7,3.5,7c-1.6,0.9-2.6,0.9-3.9-0.3c-1.4-1.3-2.8-2.7-3.7-4.3
			c-3-5.4-6-10.9-8.7-16.5c-5.1-10.5-8.7-21.6-12-32.8c-0.2-0.8-0.5-1.7-0.8-2.7c-4.3,1.8-8.3,3.6-12.6,5.2c-4.2,1.5-8.5,2.8-13,4.2
			c-0.4,1.7-0.8,3.5-1.2,5.4c-0.7,3.2-1.4,6.4-2,9.6c-0.5,2.6-1,5.2-1.5,7.7c-0.7,3.7-1.5,7.5-2.2,11.2c-0.5,2.5-0.8,5-1.3,7.5
			c-0.7,3.5-1.6,7-2.4,10.5c-0.1,0.6-0.3,1.2-0.5,1.8c-0.2,0.9-0.3,1.8-0.7,2.5c-2.2,4.8-4.5,9.5-6.8,14.2c-0.8,1.5-2,2.9-3,4.3
			c-0.3,0.4-0.9,0.6-1.7,1.1c1.1-4.7,3.3-8.5,4.3-12.9c-0.2,0.2-0.5,0.4-0.7,0.7c-0.2,0.3-0.3,0.5-0.5,0.8c-0.9,2.2-1.9,4.4-2.8,6.6
			c-1,2.5-2.1,5-3.1,7.5c-0.1,0.2-0.3,0.3-0.8,0.7c0.9-4.3,1.7-8.3,2.5-12.2c0.3-1.4,0.8-2.6,0.3-4.1c-0.3-1.1,0.5-2.5,0.7-3.7
			c0.2-0.9,0.4-1.8,0.7-2.9c-2.2,1.4-3,3.2-3.6,5.2c-0.4,1.5-1.2,3-1.4,4.6c-0.5,2.7-2.3,4.4-4.1,6.2c-0.2,0.2-0.8,0.5-1,0.3
			c-0.3-0.2-0.6-0.7-0.7-1.1s0-1,0.1-1.4c2.2-6.5,2.5-13.3,3.7-19.9c0.4-2.4,0.9-4.9,1.2-7.3c0.2-1,0.2-2,0.2-3
			C489.5,399.8,489.3,399.8,489.2,399.8z M528.5,310.4c-0.5,8.2-3.3,15.9-4.9,23.9c5.1-1.3,17-6,18.5-7.7c-2.3,0.7-4.6,1.3-6.9,2
			c0-0.1-0.1-0.2-0.1-0.3c0.8-0.5,1.6-0.9,2.3-1.4c0-0.1-0.1-0.2-0.1-0.3c-1.1,0.2-2.3,0.5-3.4,0.7
			C531.1,322,529.9,316.2,528.5,310.4z M524.3,263c-0.2,0-0.3,0-0.5-0.1c-1,2.2-1.1,4.6-1,7c0.2,0,0.3,0,0.5,0.1
			C523.6,267.7,524,265.3,524.3,263z M573.8,388c-0.6-2.4-1.4-4.7-2.9-7C571.1,383,572.3,386.1,573.8,388z M521.6,259.7
			c0.2,0.1,0.4,0.1,0.6,0.2c0.3-1.3,0.6-2.5,1-3.8c-0.2,0-0.4-0.1-0.6-0.1C522.3,257.2,522,258.5,521.6,259.7z M556,330.1
			c0.1,0.2,0.1,0.3,0.2,0.5c1.2-0.5,2.3-1.1,3.5-1.6c-0.1-0.2-0.2-0.3-0.2-0.5C558.3,329,557.2,329.6,556,330.1z M530.9,265.6
			c0.6-1,1.2-2,0.3-3.1C531.1,263.5,531,264.5,530.9,265.6z M494.7,408.6c-0.2-0.1-0.4-0.1-0.6-0.2c-0.2,0.9-0.5,1.8-0.7,2.8
			c0.2,0,0.3,0.1,0.5,0.1C494.2,410.4,494.4,409.5,494.7,408.6z M500.2,416.2c0.2,0.1,0.3,0.2,0.5,0.3c0.2-0.9,0.4-1.9,0.5-2.8
			c-0.1,0-0.3-0.1-0.4-0.1C500.6,414.4,500.4,415.3,500.2,416.2z"/>
		<path class="st0" d="M610.2,389.6c-1,2.9-0.4,6-0.9,9.1c-0.9-1.3-1.5-2.7-1.7-4.3c-0.4-4.6-0.8-9.2-1.3-13.8
			c-0.1-1.2-0.4-2.7-1.2-3.5c-1.1-1.2-1.3-2.6-1.6-4c-0.3-1.5-0.7-2.9-2.4-3.6c-0.4-0.2-0.7-1-0.7-1.6c-0.2-2.9-0.4-5.7-0.5-8.6
			c-0.2-2.7-0.2-5.4-0.4-8.1c-0.2-2.9-0.5-5.9-0.8-8.8c-0.2-2-0.5-3.9-0.7-5.9c-0.6-5.1-1.2-10.3-1.8-15.4c-0.5-4.3-1-8.6-1.3-12.8
			c-0.1-1-1-2.4,0.8-3c0.1-0.1,0.1-0.7,0.1-1.1c-0.7-5.2-1.3-10.5-2-15.7c-0.1-0.7-0.3-1.5-0.2-2.1c0.7-4.7-0.3-9.2-0.7-13.9
			c0-0.4-0.2-0.8-0.2-1.2c0.1-5-1.2-9.6-3-14.1c0-0.1,0-0.3,0.1-0.7c0.9,0.8,1.7,1.5,2.6,2.3c0.8-1.1,0.2-1.9-0.4-2.6
			c-1.3-1.4-2.6-2.8-3.9-4.2c0.2-0.9,1-1.5,1.5-0.9c1.1,1.2,2.3,0.5,3.6,0.8c0.4-1.6-1.4-1.4-1.9-2.3c-0.5-0.9-1.4-1.6-2.2-2.2
			c-0.8-0.7-1.7-1.3-2.8-2.1c0.7-0.3,1.3-0.5,2-0.8c-0.9-1.2-1.8-2.4-2.8-3.7c1.5-0.6,2.3,0.3,3.1,0.9c0.8,0.6,1.5,1.3,2.6,1
			c0.5-0.1,1-0.3,1.4-0.6c1.6-1.3,2.2-1.2,3.6,0.3c8.9,9.8,16.8,20.3,25,30.7c4.1,5.2,8.4,10.3,12.6,15.4c1.4,1.7,2.5,3.7,4,5.4
			c2.3,2.7,4.6,5.3,7,7.9c2.1,2.3,4.7,4.1,6.1,7c0.6,1.2,1.8,2.2,2.6,3.2c2.5-1.7,2.6-1.8,1.8-4c-0.2-0.6-0.3-1.2-0.3-1.9
			c-0.1-7.2-0.3-14.4-0.2-21.6c0.1-4.1,0.8-8.1,1.3-12.2c0.6-5.2,1.6-10.3,3.1-15.3c0.4-1.5,0.5-3.1,0.6-4.7
			c0.2-2.4,0.3-4.8,0.5-7.2c0.1-0.9,0.2-1.9,1.7-2.1c0.5,3.3,1.1,6.5,1.6,9.8c0.2,0,0.3,0,0.5,0c-0.4-9.3,1-18.2,5-26.7
			c0,3.7,0.1,7.4,0.1,11.2c0.5-0.4,0.8-0.5,1-0.7c0.1,0.3,0.3,0.5,0.3,0.7c0.8,8.6,1.7,17.2,2.5,25.8c0.8,8,1.5,16.1,2.2,24.1
			c0.5,5.8,0.9,11.6,1.2,17.5c0.4,6.6,1.1,13.1,2.5,19.5c0.3,1.5,0.5,3.2,2.1,4.2c0.4,0.3,0.6,1.1,0.7,1.7c0.5,5.6,1,11.1,1.5,16.7
			c0.4,4.1,0.9,8.3,1.4,12.4c0.1,0.6,0.2,1.3,0.4,1.9c1.1,2.2,1,4.6,1.4,7c0.4,2,0.9,4,1.5,6c0.2,0.8,0.5,1.7,0.7,2.5
			c0.1,0.4,0.2,1,0,1.1c-2,1.6-1,3.8-1.3,5.8c-0.5-0.3-1-0.6-1.7-1.1c-0.1,0.6-0.2,0.9-0.1,1.1c0.1,0.7,0.2,1.4-0.6,1.6
			c-0.6,0.1-1.3,0-1.8-0.3c-0.8-0.6-1.6-1.3-2.3-2.1c-9.6-10.3-18.5-21.3-27.1-32.4c-5.4-7-10.7-14.1-16.4-20.8
			c-4.7-5.4-10-10.3-15.1-15.4c-0.2-0.2-0.4-0.3-0.5-0.5c-1.2-0.9-1.9-0.8-2.3,0.7c-0.3,1.4-0.6,2.8-0.5,4.2c0.3,4,0.9,8.1,1.3,12.1
			c0.3,2.5,0.6,4.9,0.9,7.4c0.2,2.1,0.3,4.1,0.4,6.2c0.2,3.1,0.5,6.2,0.8,9.3c0,0.4,0.2,0.9,0,1.2c-1.2,1.6-0.3,3.2,0,4.8
			c0.7,4,1.6,8,2.2,12c0.2,1.2,0.1,2.4-0.1,3.6c-0.5,2.9,0.1,5.7,0.4,8.6c0.2,1.7,0.1,3.5,0.1,5.2c0,0.3-0.2,0.6-0.2,0.9
			c0.8,4.1-1.6,7.1-3.7,10.2c-0.3,0.4-0.4,1-0.6,1.5c-0.3,0.8-0.6,1.6-1.4,2.3c-0.1-0.4-0.3-0.8-0.3-1.2c0-2.7,0-5.4-0.1-8.2
			c0-0.9-0.3-1.8-0.7-2.6c-1.5,4.4-1,9-0.7,13.3c-0.2,0.1-0.3,0.2-0.3,0.2c-0.3,0-0.6,0-0.9-0.1c-1.1,1.3-0.2,3.9-2.7,4.7
			c-0.5-3.8-2.2-7.2-2.1-11C611.4,395.8,611.4,392.6,610.2,389.6z M646.2,315.1c0.1-0.1,0.3-0.2,0.4-0.3c-0.6-0.8-1.2-1.6-1.9-2.3
			c-4.7-5.2-9.2-10.6-13.2-16.4c-1-1.5-2.2-3-3.3-4.4c-0.4-0.5-0.8-1-1.3-1.4c-0.4-0.4-0.8-0.7-1.2-1.1
			C631.3,298.9,636.9,308.5,646.2,315.1z M648.4,329.2c0.2-0.1,0.4-0.2,0.6-0.4c-0.8-2.2-2.3-4.1-3.7-6c-2.9-3.9-3.3-4.2-5.3-4.6
			C643,322,645.7,325.6,648.4,329.2z"/>
		<path class="st0" d="M472.6,269.9c0,0.3-0.1,0.7-0.1,1.2c0.9-0.2,1.8-0.5,2.7-0.7c5.3-1.4,10.6-3,16-4.2c4.3-1,8.6-1.5,13-2.1
			c0.9-0.1,2.1-0.5,2.6,0.9c0.9-0.2,1.8-0.5,2.8-0.6c0.4-0.1,0.8,0.2,1.3,0.3c-0.2,0.5-0.2,1.1-0.5,1.4c-0.6,0.5-1.3,0.9-2.1,1.2
			c-2.1,0.9-4.2,1.8-6.5,2.8c0.4,1.7-0.7,2.3-2,3c-0.9,0.5-2.1,0.8-1.9,2.3c-7.2,2.2-13.8,5.6-20.5,8.8c0.1,0.2,0.1,0.4,0.2,0.6
			c0.8-0.3,1.6-0.5,2.4-0.8c4.5-1.6,9-3.2,13.5-4.9c0.9-0.3,1.6-0.2,2,0.7c0.2,0.4,0.5,0.8,0.9,1.4c-2.7,1.2-5.4,2.3-8.2,3.5
			c0.1,0.2,0.1,0.4,0.2,0.6c3.1-1,6.2-1.9,9.4-2.9c0.1,0.5,0.3,1,0.2,1.2c-0.5,0.6-1,1.2-1.7,1.6c-1,0.5-2.2,0.8-3.1,1.6
			c2.1-0.4,4.2-0.7,6.2-1.1c0.1,0.2,0.1,0.3,0.2,0.5c-0.9,0.5-1.8,1-2.7,1.4c-13.7,5.8-27.5,11.5-41.3,17.3c-2,0.8-4,1.6-6,2.4
			s-2.4,1.3-2.1,3.4c0.5,4,1.1,7.9,1.7,11.9c0.1,0.5,0.1,1.1,0.2,1.8c-1,0.5-2.1,0.9-3.1,1.4c0.1,0.2,0.1,0.3,0.2,0.5
			c9.8-3,19.7-5.5,30-6.1c-0.6,0.9-1.2,1.7-2,3c-2.4,0.8-5.5,1.4-8.2,3.3c8-1.6,15.7-4.6,24.5-5.2c-0.8,0.6-1.2,0.9-1.6,1.1
			c-2.1,0.9-4.1,1.7-6.2,2.5c-0.9,0.4-2.1,0.3-2.2,1.8c0,0.2-0.8,0.4-1.2,0.6c-0.8,0.4-1.6,0.7-2.3,1.2c4.6-0.2,8.8-2.3,13.6-3.3
			c-1.1,2.8-3.3,4-5.4,5.7c-1.2-1.1-2.3-0.7-3.6,0.1c-7.1,4.2-14.2,8.3-21.4,12.4c-0.9,0.5-1.9,0.8-2.9,1.1
			c-1.9,0.6-1.9,0.6-2.7,2.3c-0.6,0-1.4-0.2-1.7,0.1c-0.4,0.3-0.5,1.2-0.4,1.7c0.3,3.4,0.7,6.8,1.1,10.2c0.9,8.1,1.8,16.2,2.7,24.3
			c0.6,5.2,1.1,10.3,1.7,15.5c0.5,3.9,1,7.8,1.5,11.6c0.1,0.7,0.1,1.5-0.1,2.1c-2.1,5.4-4.2,10.7-6.3,16c-0.1,0.3-0.3,0.5-0.7,1
			c-0.3-3-0.5-5.6-0.7-8.3c-0.2,0-0.4,0-0.6,0c0,2.9-0.1,5.9-0.1,8.8c0,1.6,0.7,3.5-1.6,4.3c-0.1,0-0.1,0.1-0.1,0.2
			c0.1,2.4-2,4.4-1.3,6.9c0.3,0.9-0.2,1.3-1.2,1.7c-0.3-4-0.5-7.9-0.8-12c-1,1.4-1,1.4-0.9,5.1c0,1.8,0.2,3.5,0.2,5.6
			c-1.8-1.9-2.7-4.1-3.7-6.1c-0.9-1.9-1.9-3.7-2.5-5.7c-0.6-2.1-0.6-4.4-0.8-6.6c-0.2-2.3-0.4-4.6-0.5-6.9c0-0.3-0.2-0.5-0.5-0.7
			c-0.9,3.7-0.3,7.4-0.4,11.1c-1.3-0.3-2.4-0.6-4-1.1c-0.8-3.9-2-8.3-2.6-12.7c-0.8-5.6-2.4-10.9-4.6-16.1c-1-2.5-1.5-5.1-1.6-7.9
			c-0.1-4.4-0.7-8.7-1.1-13.1c-0.2-2.1-0.3-4.3-0.4-6.4c-0.1-2.6-0.1-5.3-0.2-7.9c-0.1-2.4-0.3-4.8-0.5-7.2c0-0.4,0-0.8,0-1.2
			c3.4-1.3,6.7-2.6,10-3.9c0-0.2-0.1-0.3-0.1-0.5c-0.3,0-0.7-0.1-1,0c-4.3,1.3-8.5,2.7-12.7,4.1c-0.9,0.3-1.7,0.8-2.8,1.3
			c-0.6-0.6-1.3-1.4-2.1-2.2c2.2-2,5.2-2,7.9-3.8c-3.8-0.2-6.4,1.9-9.5,2.5c0.8-1,2.5-1.5,1.1-3.2c3.1-1.5,6.3-2.2,9-4
			c-0.1-0.2-0.1-0.3-0.2-0.5c-1.6,0.5-3.1,1-4.7,1.5c-1.3,0.4-2.7,0.8-4.1,0.9s-3-0.7-4.3,1c-0.4,0.6-1.5,0.2-2-0.9
			c3.3-1.7,7-2.1,10.1-4.1c-1.7,0-3.2-1.4-4.9-0.6c2.3-1.1,4.6-2.2,6.9-3.3c0-0.2-0.1-0.3-0.1-0.5c-1.4-0.3-3.1,1.1-4.4-0.4
			c0.2-1.5,1.3-2,2.5-2.4s2.4-0.8,3.8-1.3c0-1,0.1-2.1,0-3.1c-0.3-3.2-0.8-6.5-1.2-9.7c-0.2-1.5-0.4-1.8-2.1-2
			c-2.3-0.3-4.4-1-5.9-2.8c-0.2-0.3-0.4-0.6-0.7-1.1c3.2-1.7,6.8-2.3,9.4-5c-0.9,0.2-1.8,0.4-2.7,0.6c-1.9,0.6-3.8,1.2-5.6,2
			c-2.4,1-4.7,1.2-7.2,0.5c-4.3-1-4.8-1.4-5.4-5.8c0-0.1-0.1-0.3-0.3-0.5c-0.7-0.2-1.4-0.3-2.4-0.6c2.6-1.9,5.8-2,8.2-3.9
			c-4,0.5-7.5,2.3-11.3,3.3c-1.4-2.3-1.4-2.3-0.1-3.9c-2.1-0.4-2.2-0.2-2.6,2.9c-0.7-0.1-1.4-0.1-2.1-0.2c-1-0.2-1.7-0.7-1.7-1.7
			s0.5-1.7,1.6-2.1c5.6-1.9,11.2-3.8,16.6-6c2.9-1.2,5.6-3.1,8.4-4.5s5.8-2.7,8.7-3.9c1.8-0.8,3.7-1.4,5.6-2.1
			c4.1-1.6,8.2-3.1,12.3-4.7c1.7-0.6,3.5-0.7,4.9-2.2c0.7-0.7,2.3-0.5,3.4-0.9c4.5-1.3,8.9-2.6,13.4-3.8c0.9-0.3,1.8-0.6,2.8,0.1
			c0.3,0.2,1.1,0,1.6-0.1C468.1,271.2,470.4,270.6,472.6,269.9L472.6,269.9z M485.3,286.6c-4.8,0.9-9.4,2.8-14.3,4.5
			C472.9,291.6,481.6,288.9,485.3,286.6z M403,306.6c3.9-0.7,7.5-2.3,10.9-4.1C409.9,303,406.4,304.6,403,306.6z M442.9,436.2
			c0.2,0,0.5,0,0.7-0.1c-0.1-1.9-0.3-3.8-0.4-5.7c-0.3-3.4-0.6-4.2-1.8-5.5C441.7,429,442.2,432.6,442.9,436.2z M463.9,338.1
			c-3,1.1-5.5,2.1-8.2,3.9C458.2,341.9,461.9,340.1,463.9,338.1z M489.3,271.7c-0.1-0.2-0.1-0.4-0.2-0.6c-2.3,0.7-4.6,1.3-6.9,2
			c0.1,0.2,0.1,0.4,0.2,0.6C484.6,273,487,272.3,489.3,271.7z M455,409.6c-0.2,0-0.3,0-0.5,0.1c-0.6,1.7-0.5,3.3,0.5,5
			C455,413,455,411.3,455,409.6z M449.3,331.3c1.9-0.1,3.7-0.5,5.1-1.8C452.6,329.8,450.8,330,449.3,331.3z M433.8,401.2
			c-0.1,0-0.1,0-0.2,0c0,1.9,0,3.9,0,5.8c0.1,0,0.1,0,0.2,0C433.8,405.1,433.8,403.2,433.8,401.2z M443.4,411.8
			c-0.2,0-0.5,0.1-0.7,0.1c0.2,0.9,0.4,1.7,0.5,2.6c0.2,0,0.3-0.1,0.5-0.1C443.6,413.5,443.5,412.6,443.4,411.8z"/>
		<path class="st0" d="M677.8,45.5c0.6-0.3,1.2-0.5,1.6-0.9c3.9-3.4,8.4-5.8,13.1-7.8c3.7-1.5,7.2-3.3,10.9-4.9s7.6-3,11.2-4.8
			c5.3-2.5,10.9-4.4,16-7.5c3.5-2.1,7.4-3.6,11.2-5.4c3.4-1.7,6.9-3.3,10.3-5c3.6-1.8,7.2-3.5,10.6-5.4c2.3-1.3,4.6-2.5,7.2-3.1
			c1.9-0.5,3.8-0.7,5.7-0.1c3.1,1,6.2,1.1,9.4,0c0.8-0.3,1.7-0.5,2.6-0.6c2.5-0.3,4.1,1.6,3.4,4.1c-0.2,0.7-0.5,1.3-0.6,1.7
			c-2.9,1.3-5.5,2.6-8.2,3.8c-0.3,0.2-0.6,0.5-1.1,0.9c2.2,0.4,3.4-1.1,4.9-1.5c1.5-0.5,3-1,4.7-1.7c-0.1,2.8-1.1,4.4-3.6,5.3
			c-3.4,1.2-6.7,2.7-10,4c0.1,0.2,0.1,0.3,0.2,0.5c3.5-1.2,7-2.5,10.7-3.8c0,0.6-0.1,1.1-0.1,1.8c1.8,0.4,3.8-0.6,5.7,1
			c-1.8,1.1-3.4,2-5.3,3.1c1.7,0.8,2.9-0.4,4.8-0.2c-1.1,0.8-1.8,1.4-2.5,1.7c-3,1.4-5.9,2.8-9,3.9c-6.3,2.2-12.7,4.3-19.1,6.3
			c-3.1,1-6,2.3-8.8,3.8c-2.2,1.2-4.3,2.4-6.5,3.6c-1.5,0.8-2.3,2-2.2,3.7c0.1,2,0.4,4,0.6,6c0.1,1,0.1,2.1,0.1,3.1
			c-0.2,3.1-0.6,6.2-0.6,9.3c0,3.2,0.1,6.4,0.4,9.6c0.6,6.3,0.3,12.6,0.2,18.9c-0.4,18.6-0.3,37.1,0.7,55.7c0.4,7.1,1,14.2,1.4,21.3
			c0.1,1,0,2.1-0.2,3.1c-0.4-2.5-0.8-4.9-1.1-7.4c-0.2,0-0.3,0-0.5,0c-1.1,4.9-0.5,9.9,0.1,14.9c-3.1,1-4.5,0.1-4.6-3
			c-0.2-5-0.3-9.9-0.5-14.9c-0.1-1.5-0.3-2.9-0.7-4.4c-0.8,0.8-0.7,1.7-0.7,2.6c0.1,5,0.3,9.9,0.4,14.9c0,1.3,0,2.7,0,4.1
			c-0.6,0.1-1.1,0.2-1.5,0.2c-0.5,0.1-0.9,0.1-1.5,0.2c-0.5-1.2,0.5-3.3-2-4.1c-0.2,4.3-0.4,8.4-0.6,12.5c-0.1,0-0.2,0-0.3,0
			c0-1.1,0-2.2,0-3.3c0-1.3,0.1-2.6,0-3.8s-0.3-2.3-0.7-3.4c-1.5,2.1-1.3,4.6-1.6,6.9c-0.3,2.3,0.1,4.7-0.8,6.9
			c-0.7-3.2,0-6.5-1.4-10.1c-1,1.9-1,3.6-1,5.2c0,1.6,0,3.2-0.1,4.8c-0.6-6,0.4-12-0.9-18c-1.9,6.3-1.3,12.8-2.2,19.3
			c-0.2-0.4-0.4-0.7-0.5-1.1c-0.5-3.4-1-6.8-1.4-10.2c-0.2-1.4-0.4-2.7-2.3-2.8c-1.3,0-0.9-1.5-1.6-2.6c-1.5,4.3-0.7,8.1-0.5,12
			c-1.3-1.2-3.3-5.1-3.6-7.3c-0.5-3-1-6-1.4-9c-0.2-1.7-0.2-3.3-0.3-5c0-4.1,0-8.1-0.1-12.2c0-3.7-0.2-7.5-0.2-11.2
			c0-1.6,0-3.2,0.1-4.8c0.1-3.8,0.1-7.6,0.2-11.5c0-3.3,0.1-6.7,0.1-10c0-3.9,0.2-7.8,0-11.7c-0.3-6.2-0.6-12.5-1.2-18.7
			c-0.8-8.3-2-16.7-3-25c0-0.3,0-0.6-0.1-1.1c2.7-1.6,5.4-3.2,8.5-5.1c-1.6-0.5-2.3,0.1-3.1,0.5c-3.4,1.8-6.8,3.6-10.2,5.4
			c-4.8,2.5-9.6,5-14.5,7.5c-2.5,1.3-5.1,1-7.7,0.4c-0.8-0.2-1.6-0.9-2.7-1.6c4.3-2.3,8.5-3.9,12-6.7c-1.5-0.2-2.8,0.5-4.1,1
			c-1.4,0.5-2.8,1.1-4.2,1.7c-1.4,0.6-2.8,1.2-4.3,1.9c-0.2-0.5-0.5-1-0.7-1.5c-1.6,0.3-3.1,0.6-4.8,0.9c-0.6-1.7-0.2-2.7,1.2-3.5
			c3.6-2.2,7.2-4.4,10.8-6.7c0.6-0.4,1.2-0.9,2-1.6c-1.2-0.4-2.1-0.7-3-1.1c0.3-0.3,0.6-0.6,0.8-1c-3.6,0.9-6.4,3.5-9.6,5.3
			c-0.7-2-0.7-2.1,0.9-3.1c4.2-2.7,8.5-5.4,12.7-8.1c0.6-0.4,1.2-0.9,1.8-1.4c-0.9-1-1.6-0.4-2.2-0.1c-3.5,1.9-7,3.9-10.5,5.8
			c-0.5,0.3-1,1.2-1.8,0.3C677.2,46.1,677.5,45.8,677.8,45.5z M774.5,6c-1.5-0.4-1.8-0.3-3.9,1.6C772.1,7,773.4,6.5,774.5,6
			c-0.2,0.4-0.4,0.8-1,1.7c4.9-1.4,9.1-3.1,12.8-5.8c-1.9,0.4-3.8,1-5.7,1.6C778.6,4.3,776.6,5.2,774.5,6z M719.2,90.3
			c-1.8,3.4-1.1,35.1,0.8,41C719.3,117.3,718.6,103.8,719.2,90.3z M740.4,91.2c0-8.2,0-16.4,0-24.5C739.1,69,738.9,85,740.4,91.2z
			 M735.1,69.6c0.7-3.9,0.9-15.4,0.1-17C734.7,58.6,734.8,64.1,735.1,69.6z M740.5,58.2c0.2,0,0.3,0,0.5,0c0-3.6,0-7.3,0-10.9
			C740.2,50.9,740.4,54.6,740.5,58.2z M775.2,13.3c-2.8-0.4-5.3,0.6-6.5,2.7C771,15.2,773.4,15,775.2,13.3z M723.1,169.8
			c1.1-2,1-4.1-0.1-6.2C722.2,165.8,722.5,167.8,723.1,169.8z"/>
		<path class="st0" d="M396.8,361.5c1.6-0.6,3-0.9,4.2-1.6c0.6-0.3,0.8-1.1,1.3-1.8c0.7,0.5,1.5,1,2.3,1.6
			c-1.8,4.5-5.9,6.7-10.1,8.8c0.1,0.2,0.2,0.3,0.3,0.5c3.1-1,6.1-1.9,9.4-3c-0.1,0.7-0.1,1.1-0.1,1.5c1.4,0.1,2.6-1.4,4.2-0.5
			c-0.5,2.2-2.9,2.2-4.2,3.8c2.3-0.4,4.2-2,6.9-1.1c-2.3,1.5-4.4,2.8-6.6,4.2c0.5,0.2,0.9,0.3,1.4,0.5c-0.4,1.5-1.9,2-2.9,3.1
			c1,2.7,2,5.4,3.1,8c4.6,11.3,9,22.6,13.8,33.7c2.3,5.4,5.1,10.5,7.5,15.8c1.3,2.7,2.4,5.6,3.5,8.2c-1,1.4-1.7,1.2-2.4,0.1
			c-0.9-1.3-1.8-2.6-2.7-3.9c-0.4-0.5-1-1-1.6-1.6c-0.5,0.8-0.9,1.3-1.4,2.1c-1.7-1.9-3.5-3.6-4.9-5.7c-1.4-2-2.2-4.3-3.7-6.5
			c-1.5,1.8-0.1,2.9,0.4,4.1c0.5,1.3,1.3,2.5,2.2,4.3c-1.3-0.3-2.1-0.6-3-0.8c-1.8,1.4-2.1,1.4-3.9,0c-0.8-0.6-1.4-1.2-2.4-2.1
			c0.1,0.8,0.2,1.3,0.3,1.8c0.1,0.8,0.3,1.6,0.3,2.4c0,1,0,2.3-1.3,2.5c-1.1,0.2-1.7-0.8-2.1-1.7c-5.1-9.1-10.3-18.2-15.1-27.5
			c-2.9-5.5-5.1-11.3-7.7-17c-0.5-1.2-0.9-2.4-1.4-3.6c-0.4,0-0.7,0-1,0.1c-6,2.5-12.1,5-18.1,7.5c-1.7,0.7-3.3,1.6-5,2.4
			c-1,0.4-1.4,1.2-1.7,2.2c-1.5,5.2-3,10.4-4.5,15.7c-1.6,5.4-3.3,10.7-4.8,16c-1.8,6.4-3.6,12.8-5,19.2c-0.7,3.1-2.1,5.7-3.7,8.2
			c-0.3,0.5-1.2,0.6-1.8,0.9c-0.2-0.6-0.6-1.2-0.6-1.7c0.4-2.5,1-5,1.5-7.5c0.1-0.7,0.8-1.4-0.3-2.4c-0.4,1.2-0.8,2.1-1,3.2
			c-0.9,3.4-1.8,6.8-2.7,10.2c-0.7,2.7-3.1,3.5-5.2,1.7c-0.7-0.6-1.2-1.5-1.6-2.3c-0.9-1.9-1.4-3.9-3.5-5c-0.7-0.4-0.7-1.1-0.5-1.9
			c0.8-3.2,1.6-6.4,2.3-9.5c0.4-1.8,0.8-3.7,1.4-6.1c-2.3,2.8-5,12.3-4.6,15.5c-1.4-1.7-1.7-3.5-1.6-5.4c0.2-3.3,0.4-6.5,1.3-9.7
			c0.5-1.9,1-3.8,1.6-5.8c1.9-6.5,3.8-13,5.6-19.5c1-3.5,1.8-6.9,2.7-10.4c0.1-0.2-0.1-0.4-0.1-0.7c-2.2,0-4,2.1-6.5,0.9
			c0.8-1.2,1.9-1.6,3-2.1c3.8-1.4,7.6-3,11.4-4.5c0.5-0.2,0.9-0.6,1.1-1.2c-2.4,1-4.8,1.9-7.2,2.8c-0.1-0.1-0.2-0.2-0.2-0.3
			c0.2-0.3,0.5-0.7,0.7-1c0.3-0.3,0.6-0.5,0.8-1.1c-1.1,0.1-2.2,0.1-3.3,0.2c-0.8,0-1.6,0.3-2.4,0.1c-0.6-0.1-1.4-0.6-1.6-1.1
			c-0.1-0.5,0.5-1.2,0.9-1.7c0.2-0.3,0.7-0.4,1-0.6c4.1-2,8.3-4.1,12.4-6.1c0.8-0.4,1.5-0.8,2.2-1.3c-0.1-0.2-0.1-0.3-0.2-0.5
			c-0.6,0.1-1.1,0.1-1.6,0.3c-1.5,0.6-3,1.1-4.4,1.9c-2.4,1.4-5.2,1.4-7.8,2c-0.3,0.1-0.6,0-1,0c-1,0-1.7-0.6-1.8-1.6
			c-0.1-0.9,0.4-1.5,1.2-1.8c2-0.8,4-1.7,6-2.4c2.1-0.6,3.1-2,3.6-4c1.3-4.7,2.6-9.3,4-14c1.1-3.9,2.2-7.8,3.5-11.7
			c1.3-4,3-7.9,4.4-11.9c1.2-3.5,2.3-7.2,3.4-10.7c2.6-8.3,5-16.7,7.7-25c1.5-4.7,3.2-9.3,6.4-13.3c1.6-2,2.7-4.4,4.3-7
			c1.5,3.5,0.2,6.5,0.6,9.6c0.6-1.4,1.3-2.9,1.9-4.3c0.1,0,0.3,0,0.4,0c0.1,0.5,0.3,1,0.3,1.4c-0.1,1.5-0.3,3-0.6,4.5
			c-0.8,3.1,0.6,5.7,1.3,8.4c1.8,0.7,2.1-1.1,3.4-1.4c0.9,1.1,0.8,2.4,0.4,3.5c-1.1,2.7-0.3,5,0.8,7.5c6.1,13.8,12,27.7,18,41.6
			C396.2,360.1,396.4,360.7,396.8,361.5z M361.4,374.8c5.7-2.1,11-3.8,15.9-6.5c-0.3-0.4-0.5-0.6-0.7-1c0.4-0.3,0.8-0.5,1.3-0.9
			c-2-0.6-2.2-1-1.2-2.7c-1,0.2-1.9,0.5-2.9,0.7c-0.2-1-0.5-1.8-0.7-2.7c-0.8-3.2-1.7-6.3-2.4-9.5c-0.4-1.5-1.1-2.4-2.9-2.3
			c-3.6,7.1-5.8,14.6-6.9,22.5C360.7,373,361.1,373.8,361.4,374.8z M386.5,379.6c0.1,0.2,0.2,0.4,0.3,0.6c3.2-1.2,6.3-2.4,9.5-3.6
			c-0.1-0.2-0.1-0.4-0.2-0.6C392.6,376.7,389.5,378.1,386.5,379.6z M362,309.7c1.5-1.3,2.4-3,2.6-5.1
			C363.2,306,362.2,307.6,362,309.7z M325.9,452c-0.5,1.8-0.9,3.5-1.4,5.3C326.4,455.1,326.9,453.7,325.9,452z M365.8,311.6
			c0.2,0.1,0.4,0.1,0.6,0.2c0.1-0.5,0.3-1,0.4-1.6c-0.2,0-0.4-0.1-0.5-0.1C366.1,310.5,365.9,311.1,365.8,311.6z"/>
		<path class="st0" d="M634.8,204.5c0.1-1.6,0.3-3.2,0.4-4.7c0-0.6,0-1.3-0.1-1.9c-0.1-0.8-0.6-1.3-1.4-1.3c-0.8,0-1.4,0.5-1.5,1.3
			c-0.1,1.1-0.2,2.2-0.2,3.3c-1.6,0.8-1.5,0.8-1.5,2.4c0,1.6,0,3.2,0,5c-1-1.2-1.7-2.2-2.8-3.5c-0.2-0.8,0.7-2.4-0.9-3.7
			c-0.2,0.8-0.5,1.3-0.5,1.8c0,2.8,0,5.6,0.1,8.4c0,1.8-0.3,2.3-2.6,3.1c-0.2-1.4-0.5-2.7-0.7-4.1c-0.2,0-0.3,0-0.5-0.1
			c0.1,2.1-2.9,2.5-1.8,5.1c-1.4-0.2-2.3-0.4-3.3-0.5c-0.1-2.1-0.2-4-0.3-5.9c-0.1-1.1,0-2.4-1.5-2.6c-1-0.2-1.6,0.8-1.8,2.6
			c-0.2,1.6-0.3,3.3-0.5,5c-1.4-0.1-2.2-0.7-2.5-2c-0.8-4.6-2.2-9.2-1.9-14c0-0.4,0-0.8,0-1.2c0-2.6-0.1-2.7-2.8-3.8
			c0-1.7,0-3.5,0-5.4c-0.5-16.9-0.9-33.7-1.5-50.6c-0.4-9.7-1.2-19.3-1.6-29c-0.2-5.4-0.1-10.9-0.3-16.3c0-1.4-0.5-2.8-0.7-4.2
			c-0.1-0.9-0.2-1.7-0.1-2.6c0.1-2.9,0.3-5.7,0.4-8.6c0-0.8-0.1-1.5-0.2-2.5c-0.7,0.1-1.2,0.1-1.6,0.2c-6,1.5-11.7,3.8-16.9,7.1
			c-1.7,1.1-3.6,1.7-5.7,2.7c0.1-1.2,0.2-2.3,0.4-3.7c-2,0.6-3.7,1.3-5.4,1.6c-1.8,0.3-3.6,0.1-5.4-0.2c0.9-0.4,1.9-0.7,2.8-1.1
			c1.3-0.7,2.9-0.9,3.4-2.7c0.1-0.4,0.9-0.5,1.4-0.7c3.1-1.1,6.2-2.1,9.3-3.2c0.8-0.3,1.6-0.7,2.2-1.5c-0.9,0.2-1.8,0.4-2.6,0.7
			c-4,1.3-8,2.6-12.1,3.9c-1.4,0.4-2.9,1-4.3-0.7c2-1.5,4.8-1.8,6.7-4.4c-3.5,0.1-5.8,2.3-8.6,2.8c-1-1.8-0.3-3.1,1-4
			c2.3-1.6,4.7-3,7-4.5c0.5-0.3,1-0.5,1.3-1.2c-0.9,0.3-1.9,0.5-2.8,0.8c-2.3,0.7-4.7,1.6-7.1,2c-1.3,0.3-2.7-0.1-4-0.2
			c0-0.2-0.1-0.3-0.1-0.5c2.9-1.7,5.7-3.6,8.7-5.2c2.9-1.6,5.9-2.9,8.8-4.4c-0.1-0.2-0.1-0.4-0.2-0.6c-0.8,0.2-1.6,0.2-2.4,0.5
			c-2.9,0.9-5.8,1.8-8.7,2.7c-0.6,0.2-1.3,0.1-1.9,0.1c0-0.2-0.1-0.3-0.1-0.5c0.2-0.2,0.4-0.4,0.6-0.6c9.9-5,20.2-9.2,30.7-12.8
			c12.9-4.4,26.1-7.4,39.2-11.1c1.3-0.4,2.6-0.7,3.9-1.1c0.9-0.3,1.8-0.4,2.8-0.1c0.6,0.2,1.4,0,2.1-0.2c1.7-0.6,3.3-1.1,4.9-1.9
			c4.7-2.4,9.8-3.7,14.8-5.4c1.5-0.5,3-0.9,5.1-0.3c-1,0.8-1.7,1.4-2.8,2.3c1.5-0.5,2.6-0.8,3.7-1.1c2.2-0.8,4.4-1.5,6.5-2.3
			c1.6-0.6,3.3-0.6,5.3-0.2c-0.2,0.6-0.3,1.3-0.6,1.7c-0.9,0.8-1.9,1.7-3.1,2.2c-2.3,1.1-4.6,2-7.5,3.3c1.5,0.2,2.4,0.3,3.4,0.4
			c0.1,1.2-0.7,1.4-1.4,1.7c-1.8,0.7-3.6,1.4-5.3,2.2c-0.7,0.3-1.3,0.8-2.3,1.4c0.8,0.3,1.3,0.6,1.6,0.6c1.8-0.4,3.6-0.8,5.3-1.2
			c1.9-0.5,3.7-1.2,6-0.9c-0.8,1.5-1.7,2.3-3.2,2.8c-1.9,0.6-3.6,1.5-5.4,2.6c2.7,1.1,5.1-0.6,7.9-1c-0.9,2.2-2.7,2.9-4.4,3.7
			c-2.5,1.1-5,2.1-7.5,3c-1.6,0.6-3.2,1.1-4.8,1.4c-2.2,0.4-3.9,2-6,2.8c-6.2,2.3-12.4,4.7-18.7,6.9c-2.1,0.7-2.7,2-2.8,3.9
			c-0.3,7.3-0.9,14.6-1,22c-0.1,5.5,0.4,11,0.6,16.5c0.2,4.1,0.3,8.1,0.4,12.2c0.1,4.1,0.2,8.1,0.4,12.2c0.2,5.6,0.5,11.1,0.6,16.7
			c0.2,7.9,0.3,15.8,0.4,23.7c0.1,3.5,0.3,7,0.4,10.5c0.1,4.1,0,8.1,0,12.2c0,4.5,0,8.9,0,13.4c0,0.9-0.2,1.8-0.3,2.8
			C635.1,204.6,635,204.5,634.8,204.5z M609.4,117.7c0.3,7.8-0.4,15.7,0.2,23.5C610.5,138.4,610.4,120.8,609.4,117.7z M615.1,133
			c-0.3,0-0.6,0-0.9,0c-0.3,5.8-0.3,11.6,0.4,17.4C614.8,144.7,614.9,138.8,615.1,133z M617.8,201.4c1.2-3.8,1.1-9.6,0-11
			C617.8,194.1,617.8,197.8,617.8,201.4z M622.3,195.1c-0.9,2.8-1.7,5.1-0.3,7.6C623.4,201.3,623.5,199,622.3,195.1z M660.5,35.7
			c2.3,0.3,4.9-0.7,5.8-2.2C664.1,33.4,662.2,33.6,660.5,35.7z M613.8,202.3c1.1-1.5,0.9-2.9-0.1-4.5
			C612.9,199.4,612.6,200.8,613.8,202.3z M629,195c0.8-1.7-0.1-3.1-0.4-4.7C628.3,192,627.9,193.4,629,195z M628.7,131.1
			C628.7,131.1,628.6,131.1,628.7,131.1c-0.1,1.1-0.1,2.2-0.1,3.3c0,0,0,0,0.1,0C628.7,133.3,628.7,132.2,628.7,131.1z M627.6,105.5
			L627.6,105.5c0.1-1.1,0.1-2.2,0.1-3.3h-0.1C627.6,103.3,627.6,104.4,627.6,105.5z"/>
		<path class="st0" d="M227.5,398.4c2.1,0.3,2.1,0.3,2.5-1.3c0.8-3.4,1.8-6.8,2.5-10.2c0.5-2.6,1-5.2,2.1-7.6
			c0.4-0.9,0.6-1.7,1.4-2.4c0.5-0.3,0.7-1,0.9-1.6c1.2-4.9,3.8-9,6.4-13.3c5.5-9,13.2-15.8,21.5-21.9c4.7-3.5,10.2-5.7,16-6.5
			c0.3,0,0.7,0,0.9-0.2c2.4-1.5,4.8-0.6,7.2,0c1.1,0.3,2.1,1,3.1,1.7c1.1,0.7,2.1,1.5,3.5,2.6c-0.1-2.3-1.7-3.1-2.5-4.5
			c2.1-0.7,4.1-1.8,6.2-0.6c0.7,0.4,1.2,0.9,1.7,1.5c1.1,1.3,2,2.7,3.1,3.9c3.8,3.9,6.4,8.5,8.2,13.7c0.5,1.4-0.1,2.5-0.6,4
			c-1-0.7-1.8-1.2-2.9-1.9c-0.1,2.1,1.3,3.2,1.9,4.5c0.6,1.4,1.4,2.7,1.9,4.1c0.6,1.5,1.2,3,1.7,4.5c0.5,1.4,1,2.8,1.5,4.4
			c-1.6,0.9-3,1.7-4.7,2.6c-1-2-1.9-3.9-3.1-6.1c-0.2,1.9-0.3,2.5,0.6,4.5c1,2.1-0.2,4,0.1,6.5c-1.8-1.5-2.4-3.1-3-4.6
			c-1.2-3.2-2.8-6.3-4.8-9.1c-0.6-0.9-1.3-1.8-2.1-2.6c-2.2-2.3-4.7-3.2-8-2.6c-4.4,0.8-8.5,2.2-12.3,4.4c-2,1.1-3.6,2.9-5.3,4.5
			c-1.9,1.8-3.5,3.7-5.4,5.5c-2.2,2.2-3.9,4.7-5.1,7.5c-7.4,17-10.7,34.7-9.1,53.3c0.3,3.6,0.8,7.1,2.4,10.4
			c0.9,1.8,1.9,3.3,3.6,4.3c0.8,0.5,1.6,1.1,2.4,1.7c4,2.8,8.3,2.5,12.6,0.9c4.2-1.6,8-4,11.5-6.8c0.9-0.7,1.8-1.5,3.1-2.6
			c-0.3,1.6-1.3,1.9-2,2.6c-0.8,0.7-1.6,1.3-2.4,2s-1.5,1.3-2.3,2c0.1,0.2,0.2,0.3,0.3,0.5c0.7-0.3,1.4-0.5,2.1-0.9
			c3.8-2.3,7.3-5,9.9-8.6c0.2-0.3,0.4-0.5,0.6-0.8c5.1-4.6,9-10.2,13-15.7c0.2-0.2,0.4-0.4,0.7-0.6c-0.3,2.7-1.2,5.1-2.8,7.3
			c-0.5,0.6-0.9,1.3-1.3,2c-0.4,0.8-0.8,1.7,0.3,2.3c0.9,0.5,1.5-0.3,1.9-0.9s0.7-1.3,1.1-1.9c1.2-1.6,2.4-3.1,3.7-4.8
			c0.3,1.1,0.5,1.8,0.6,2.4c0.6-0.4,1.2-0.8,1.8-1.2c0.2-0.1,0.4-0.2,0.7-0.4c0.1,2.6-0.2,4.9-1.3,7.1c-1.6,3.2-3.3,6.4-5.1,9.5
			c-1.8,3.1-3.4,6.1-3.6,9.8c-0.1,1.6-0.6,3.1-1.1,4.6s-1.5,2.5-3,3.2c-0.8,0.3-1.6,0.8-2.2,1.4c-3.1,3.2-6.8,5.3-11,6.6
			c-3.5,1.1-6.3,3-8.2,6.2c-0.3,0.6-0.9,1.2-1.5,1.5c-2.3,1.1-4.6,2.1-7.1,2.9c-2.3,0.7-4.6,1.2-7,1.7c-1.5,0.3-3.1,0.3-5.1,0.5
			c1.9-2.2,4.6-2.7,5.7-5c-1.1-0.9-1.6-0.1-2.2,0.3c-2.4,1.7-4.8,3.5-7.6,4.4c-2.3,0.8-4.5,1.2-7,0.2c-2-0.8-4.2-1.1-6.2-1.8
			c-1.1-0.4-2.2-1-3-1.8c-4.3-4.2-8-9-11-14.1c-2.5-4.1-3.6-8.7-3.6-13.5c0.1-4.3,0.3-8.6,0.2-12.9c-0.1-2.9-0.3-5.8-1-8.5
			c-1-3.8-0.8-7.6-0.5-11.4c0.4-4.8,1.2-9.7,1.9-14.5C225.2,402.2,226.3,400.3,227.5,398.4z M292.8,352.4c-5.7,0.2-12.3,3-14.4,5.8
			C283,356.4,287.7,354.5,292.8,352.4z M253.3,455.7c1.8,5,9.1,6.4,13.1,2.5c-1.6,0.3-2.8,0.6-4,0.8c-3.2,0.6-6.2,0.6-8.2-2.6
			C254.1,456.2,253.9,456.1,253.3,455.7z"/>
		<path class="st0" d="M715.1,207.5c0.2,4.2,0.4,7.7,0.6,11.7c1.2-1.6,1-2.9,1-4.1c0-5.7,0-11.3,0-16.7c0.9-0.8,1.5-1.3,2.1-1.8
			c0.6-0.6,1.2-0.8,1.9-0.3c1.8,1.1,2.8,2.4,2.8,4.8c-0.1,3.6,0.3,7.2,0.6,10.8c0.1,0.9,0.3,1.7,0.8,2.6c0.1-0.8,0.4-1.7,0.4-2.5
			c0.1-3.2,0-6.4,0.1-9.6c0-1.1,0.2-2.2,0.4-3.3s0.9-1.7,2-1.7c1.1,0.1,1.7,0.8,1.9,1.9c0.1,0.4,0,0.8,0,1.2
			c0.3,11.4,0.3,22.9,1.1,34.3c1.1,15.3,0.3,30.7,1.3,46c0.8,11.3,1.5,22.7,2.3,34c0.6,8.1,2,16.2,3.3,24.2c0.7,4.3,3.1,7.4,5,10.9
			c1.2,2.1,2.5,4.1,3.8,6.1c1,1.5,2.2,3,3.3,4.4c0.6,0.8,1.2,1.6,2.1,2.8c-0.9,0-1.4,0.1-1.7,0c-1.1-0.5-2.3-0.9-3.1-1.7
			c-1.6-1.4-3.4-1.9-5.4-1.5c-1.4-1.8-2.4-3.8-4-5.2c-2.4-2-3.6-4.6-4.5-7.4c-0.2-0.6-0.6-1.1-1-1.9c-1.1,1.4-0.8,2.6-0.3,3.8
			c0.8,1.9,1.7,3.8,2.5,5.7c0.2,0.5,0.3,1.1,0.1,1.8c-0.4-0.7-0.9-1.3-1.4-2.1c-1.1,0.8-0.9,1.7-0.8,2.6c0.2,0.8,0.4,1.5-0.4,2.2
			c-0.2,0.2-0.3,0.7-0.2,1.1c0.2,1.6,0.4,3.3,0.8,4.9c0.2,0.8-0.1,1.4-0.6,1.9c-1.9,1.8-5,2.1-7.3,0.7c-1.1-0.7-2.1-1.4-3.2-2.2
			c-0.4,0.6-0.6,1.2-1.1,1.6c-0.7,0.6-1.6,0.7-2.5,0.3c-0.8-0.4-0.7-1.1-0.6-1.8c0.1-2.1,0.1-4.3,0-6.4c-0.3-4-0.7-8-1.1-11.9
			c-0.1-0.8-0.2-1.6-0.6-2.3c-3.5-7-5.1-14.6-6.4-22.3c-2.2-12.6-2.3-25.3-2.5-38c-0.1-5-0.7-10-1-15c-0.2-3.7-0.3-7.5-0.5-11.2
			c-0.2-2.7-0.5-5.4-0.7-8.1c-0.1-1.3-0.4-2.7-0.3-4c0.2-5.4,0.4-10.9,0.6-16.3c0.4-7.9-0.2-15.8-0.5-23.7c-0.1-2,0.2-2.7,1.3-2.9
			c1.2-0.1,1.8,0.7,2,2.6c0.1,0.8,0.3,1.6,0.3,2.4c0,1.3,1.2,1.9,2,2.1c0.7,0.2,1.8-0.4,2.5-0.9
			C713.2,209.3,713.9,208.5,715.1,207.5z M711.3,260c-0.4,8.5,0.8,16.9,1.4,25.7c0.4-0.5,0.8-0.8,0.8-1c0.1-1.3,0.3-2.5,0.2-3.8
			C713.1,273.9,713.1,266.8,711.3,260z"/>
		<path class="st0" d="M555.9,58.6c1.8,1.9,1.8,2,0.4,3.8c-1.9,2.5-4.2,4.9-5.8,7.6c-1.4,2.4-3.7,3.5-5.6,5.1
			c3.9-0.3,6.9-3.2,10.9-4c0,1.3,0,2.3,0,3.2c-4.9,3.4-9.6,6.6-14.3,9.9c-0.1,0,0,0.3,0,0.8c4.2-1.9,8-4.4,12.3-6.1
			c-0.9,1.1-1.7,2.3-2.8,3.2c-3.5,2.8-6.8,5.9-10.6,8.2c-8.2,5-16.6,9.6-25,14.2c-1.4,0.8-3.1,1.1-4.7,1.7c-1.7,0.6-3.5,1.2-5.2,1.8
			c-5.7,1.9-11.3,3.9-17,5.7c-2.8,0.9-5.7,1.3-8.6,1.9c-2.8,0.6-5.6,1.4-8.4,2c-3.3,0.7-6.6,1.2-9.9,1.8c-3.4,0.7-6.9,1.5-10.3,2.3
			c-0.4,0.1-0.8,0.3-1.1,0.4c-1.3,0.3-2.2-0.5-1.9-1.9c0.4-1.3,1.1-2.3,2.4-2.8c1.2-0.5,2.3-1,3.5-1.5c1.1-0.4,1-1.1,0.4-1.9
			c-0.8,0.2-1.7,0.6-2.5,0.6c-1.3-0.1-2.7-0.2-3.9-0.7c-1.4-0.7-1.4-2.2,0-3c1.7-1,3.5-1.8,5.2-2.9c1-0.6,2.3-0.9,2.8-2.3
			c0.1-0.4,0.9-0.5,1.4-0.7c3.7-1.4,7.3-2.7,11-4.1c0.4-0.2,0.8-0.5,1.4-1c-0.6-0.3-1.1-0.6-1.4-0.5c-1.4,0.5-3,0.8-4.2,1.6
			c-1,0.7-2,1.1-3.2,1.4c-1.4,0.3-2.7,0.9-4.1,1.2c-2.2,0.5-4.4,1-6.7,1.4c-0.6,0.1-1.5-0.3-1.8-0.8c-0.5-0.8,0.3-1.2,0.9-1.6
			c1.6-1.1,3.3-2.2,5-3.4c-0.2-0.4-0.5-0.9-0.7-1.4c-0.5-1.5-0.2-2.4,1.2-3.3c2.5-1.7,5.4-2.7,8.2-3.8c2.1-0.9,4.3-1.6,6.5-2.4
			c1.2-0.5,2.1-1.3,2.8-2.5c1.5-2.8,4-4.5,7.1-4.6c2.3,0,4-1,5.6-2.2c3.6-2.7,7.5-4.4,11.7-5.8c5-1.6,9.9-3.4,14.9-5.1
			c4.6-1.5,9.3-2.9,13.9-4.3c1.6-0.5,3.2-1,4.8-1.6c3.5-1.2,6.9-2.4,10.4-3.6c1.7-0.6,3.4-1.4,5.1-2c2.7-1,5.4-1,8.1,0.6
			c-1.3,1.1-2.3,2-3.7,3.2C552.7,60.6,554.1,59.1,555.9,58.6z M477.4,109.9c-0.1-0.2-0.2-0.4-0.3-0.6c-5.3,1.7-10.7,3.3-16.3,5.1
			c0.7,0.2,1.1,0.5,1.4,0.4C467.3,113.1,472.3,111.5,477.4,109.9z"/>
		<path class="st0" d="M566.8,139.5c-0.2,0.4-0.2,0.6-0.3,0.8c-2.8,2.3-5.4,5-9,6s-6.9,2.8-10.1,4.7c-3.3,1.9-6.9,3.2-10.5,4.6
			c-2.4,1-4.9,1.9-7.4,2.8c-2.2,0.8-4.4,1.5-6.6,2.2c-2.1,0.6-4.2,1.1-6.2,1.7c-5.4,1.7-10.8,3.5-16.2,5.1
			c-5.3,1.6-10.7,3.1-16.1,4.6c-3.7,1-7.4,1.9-11.1,2.9c-1.8,0.5-3.4,0.5-4.9-0.7c-0.9-0.7-1.9-1-3.1-0.6c-1.3,0.4-2.8,0.5-4.2,0.5
			c-0.6,0-1.5-0.4-1.7-0.9c-0.4-0.8,0.4-1.2,1-1.6c0.8-0.4,1.5-0.8,2.3-1.3c-0.1-0.1-0.1-0.3-0.1-0.3c-1.3-0.2-2.4-0.7-2.5-2.1
			c-0.1-1.5,1-2,2.2-2.5c1.5-0.5,2.9-1.2,4.3-2.2c-1.2-0.2-2.4-0.4-3.9-0.7c1.1-2.2,3.9-0.6,4.6-2.7c-0.1-0.1-0.1-0.4-0.2-0.4
			c-2.5-1.2-2.6-2.5-0.5-4.1c1-0.7,2.3-1.1,2.2-2.8c0-0.4,0.9-0.9,1.4-1.1c1.1-0.5,2.2-0.9,3.3-1.4c0.5-0.2,1.2-0.4,1.5-0.8
			c0.9-1.5,2.5-1.5,3.8-2.1c4.6-2,9.2-4.1,13.7-6.2c4.3-2,8.3-4.4,13-5.5c2.7-0.6,5.4-1.3,8.2-1.7c5.4-0.8,10.8-1.2,16.1-2.2
			c3.7-0.7,7.3-2.1,10.9-3.4c6.8-2.4,13.5-5,20.2-7.4c2-0.7,4.2-1.1,6.2-1.7c1.1-0.3,2.2-0.6,3.1,0.4c0.9,1,0.5,2.1,0,3.1
			c-0.1,0.1-0.1,0.3-0.2,0.4c1.2,2.4,0.9,3.5-1.3,4.9c-1.4,0.9-3,1.5-4.7,2.4c1.3,0.3,3-1.1,3.5,1.1c-0.5,1-2.4,1.3-1.8,3.1
			c0.1,0.2-0.6,0.5-0.8,0.8c-0.3,0.3-0.7,0.6-0.7,0.9c0.2,2.2-1.4,2.6-3,3.2c-0.3,0.1-0.6,0.3-1.2,0.6
			C562.4,140,564.5,138.5,566.8,139.5z M555.4,142.3c-4.4,0.6-18.7,6.2-21.7,8.6C540.9,148.1,548.2,145.2,555.4,142.3z M518.5,149.7
			c3.5-0.1,14.6-3.2,16.2-4.5C529.3,146.7,523.9,148.2,518.5,149.7z"/>
		<path class="st0" d="M500.2,214c-2.3,0.6-4.6,1.1-6.9,1.8c-2.4,0.7-4.7,1.5-7.5,2.5c0.7-0.8,1-1.1,1.4-1.5c-1.2-0.5-2.4-0.2-3.5,0
			c-3.5,0.6-6.9,1.3-10.4,1.9c-1,0.2-2,0-3.4,0c1.1-3.2,2.9-5.2,5.9-6.1c3.8-1.1,7.6-1.9,11.3-2.9c3.8-1,7.7-2.1,11.5-3.3
			c4-1.2,8.1-2.5,12.1-3.8c3.6-1.1,7.1-2.4,10.7-3.5c1.7-0.5,3.4-0.8,5.1-1.2c3.3-0.8,6.5-1.5,9.7-2.3c0.5-0.1,0.9-0.5,1.3-0.9
			c-2.7-0.2-5.2,0.7-8.2,0.9c0.4-0.6,0.6-1.2,0.9-1.4c1.7-1.2,3.6-1.8,5.7-1.7c4.2,0.2,8-0.9,12-2.1c0.7-0.2,1.4-0.4,2.1-0.5
			c1.9-0.2,3.8-0.4,5.7-0.5c1.7-0.1,3.3,0.2,5,1.2c-0.3,0.5-0.6,1-0.9,1.5c1.1,1.2,2.3,0.6,3.3,0.3c3.1-0.8,6.1-1.7,9.2-2.6
			c0.9-0.2,1.8-0.3,3-0.5c-0.2,0.6-0.3,0.9-0.4,1.1c1.6,0.3,3.2,0.6,5.4,1c-3.2,2.6-6.8,2.8-9.9,4.3c1.1-0.1,2.2-0.2,3.7-0.4
			c-0.6,0.7-1,1.1-1.4,1.5c0.3,0.2,0.6,0.4,1.2,0.8c-1.5,1-3,1.9-4.4,2.8c0,0.1,0,0.2,0.1,0.3c1.2-0.3,2.5-0.7,3.7-0.9
			c2-0.4,3.9-1,6.1-0.3c0.9,0.3,2.2-0.2,3-0.2c0.5,0.8,0.8,1.4,1.4,2.3c-3.2,2.8-7.5,3.6-11.8,5.7c1.5-0.2,2.4-0.3,3.4-0.3
			c0.9,0,1.8,0,2.9,0.4c-0.5,0.3-0.9,0.8-1.5,1c-1.3,0.5-2.7,1.2-4.1,1.4c-5.6,0.9-10.3,4-15.6,5.8c-0.6,0.2-1,0.7-1.6,1
			c-1.4,0.7-2.7,1.5-4.1,1.8c-2.4,0.7-4.8,1-7.2,1.6c-5.6,1.3-11.2,2.6-16.8,3.9c-4.8,1.1-9.5,2.8-13.8,5.1c-2.7,1.4-5.3,3-8.1,4
			c-2.7,1-5.5,2.1-8.6,1.9c-2.2-0.2-4.5,0-6.7-0.1c-2.3-0.1-4.4-0.7-5.9-2.6c-0.3-0.4-0.4-0.8-0.7-1.4c1.1-0.6,2-1.2,3.2-1.9
			c-1.9-1.4-3.4,0.4-5.3-0.4c0.6-0.2,1.2-0.5,2.1-0.8c-0.8-0.4-1-0.6-1.2-0.6c-0.4,0-0.8,0.1-1.1,0.3c-1.9,0.7-2,0.7-3.7-1.2
			c0.9-0.2,1.6-0.3,2.4-0.5c1.3-0.4,2.6-0.9,3.8-1.5c0.3-0.1,0.4-0.7,0.6-1.1c1.1,0.3,2.2,0.3,3.1-0.8c-1,0.3-2,0.5-3.1,0.8
			c-1.4,0-2.8,0-4.2,0c1.3-1.8,3.1-2.8,5.2-3.5c4.4-1.4,8.8-2.9,13.1-4.4C498.8,214.7,499.5,214.3,500.2,214c1.5,0.2,2.8-0.6,4.2-1
			c0-0.2-0.1-0.3-0.1-0.5C502.9,213,501.6,213.5,500.2,214z M544.5,215.8c0-0.2-0.1-0.3-0.1-0.5c-1.4,0.4-2.8,0.8-4.3,1.2
			c0,0.2,0.1,0.3,0.1,0.5C541.7,216.6,543.1,216.2,544.5,215.8z"/>
		<path class="st0" d="M737.6,304.9c-1.2-10-1.7-20.1-1.9-30.1c1.1,3.3,0.9,6.6,1,10c0.1,3.3,0.2,6.7,0.3,10
			C737.2,298.2,737.4,301.6,737.6,304.9z"/>
		<path class="st0" d="M675.1,221.4c0,4.6,0,9.2,0,13.8H675c-0.1,0-0.2-0.1-0.2-0.1c0-4.6,0-9.2,0-13.8
			C674.9,221.4,675,221.4,675.1,221.4z"/>
		<path class="st0" d="M507.9,277.1c0.3,1.4,0,2.3-1.3,2.7c-1.6,0.5-2-0.8-2.8-1.6C504.9,276.3,506.6,277.8,507.9,277.1z"/>
		<path class="st0" d="M677.8,45.5c-0.3,0.3-0.6,0.6-0.9,0.9c-1.3,0.7-2.6,1.3-3.9,2c-0.1-0.2-0.2-0.3-0.3-0.5
			c1.8-1.8,3.9-3.4,6.4-4.5C678.7,44.1,678.3,44.8,677.8,45.5z"/>
		<path class="st0" d="M623.8,346.4c1.6,3,1.1,6.2,1.5,9.4c-0.2,0-0.4,0-0.6,0.1C624.4,352.6,624.1,349.5,623.8,346.4z"/>
		<path class="st0" d="M700.7,228.2c0,2.4,0,4.4,0,6.4C699.3,232.5,699.4,230.6,700.7,228.2z"/>
		<path class="st0" d="M370.7,186.8c1.9,1.5,1.9,1.5,0.5,3.9C371,189.1,370.9,187.9,370.7,186.8z"/>
		<path class="st0" d="M624.8,269.9c-1.2-1.4-2.1-2.6-3.1-3.9C623.4,266.5,624.1,267.4,624.8,269.9z"/>
		<path class="st0" d="M618.3,250.9c2.3,0.6,2,2.3,2.9,3.3c-0.1,0.1-0.3,0.2-0.4,0.3C620,253.4,619.3,252.3,618.3,250.9z"/>
		<path class="st0" d="M286.1,309.9c0.4-0.8,0.9-1.6,1.3-2.5c0.5,1.3,0.1,2.1-0.7,2.8C286.5,310.2,286.3,310.1,286.1,309.9z"/>
		<path class="st0" d="M307.7,451.6c0.3,1.3,0.4,2.4-0.6,3.4C306.7,453.2,306.7,453.2,307.7,451.6z"/>
		<path class="st0" d="M393.6,306.3c0.7-0.3,1.2-0.5,1.9-0.8c-0.1,0.8-0.1,1.3-0.2,2.3C394.6,307.2,394.2,306.9,393.6,306.3z"/>
		<path class="st0" d="M652,302.9c0-0.9,0-1.7,0-2.9c1,1.1,0.7,2,0.6,2.9C652.3,302.9,652.1,302.9,652,302.9z"/>
		<path class="st0" d="M625.1,333.8c-0.1-0.9-0.3-1.8-0.4-2.7c0.2,0,0.4,0,0.7-0.1c0,0.9,0.1,1.8,0.1,2.7
			C625.4,333.8,625.3,333.8,625.1,333.8z"/>
		<path class="st0" d="M472.7,269.9c1-0.2,2-0.5,3.3-0.8C474.1,270.1,474.1,270.1,472.7,269.9C472.6,269.9,472.7,269.9,472.7,269.9z
			"/>
		<path class="st0" d="M625.2,368.9c0-0.5,0-1,0-1.5c0.1,0,0.1,0,0.2,0c0.1,0.5,0.2,1,0.3,1.5C625.5,368.9,625.3,368.9,625.2,368.9z
			"/>
		<path class="st0" d="M282.3,311.9c-0.2-0.4-0.4-0.7-0.4-0.9c0.1-0.2,0.5-0.4,0.7-0.4s0.4,0.3,0.6,0.5
			C283,311.3,282.7,311.5,282.3,311.9z"/>
		<path class="st0" d="M541,232.7c0.1,0.4,0.3,0.7,0.3,1.1c0,0.2-0.4,0.5-0.6,0.5c-0.2,0-0.5-0.3-0.6-0.5s0.2-0.4,0.2-0.7
			C540.5,233,540.7,232.9,541,232.7z"/>
		<path class="st0" d="M511.4,266.4c-0.2,1.6-0.7,1.5-1.5,0.7C510.4,266.9,510.7,266.7,511.4,266.4z"/>
	</g>
</g>
</svg>
